<?xml version="1.0" standalone="no"?>
<!DOCTYPE svg PUBLIC "-//W3C//DTD SVG 1.1//EN" "http://www.w3.org/Graphics/SVG/1.1/DTD/svg11.dtd">
<svg xmlns="http://www.w3.org/2000/svg">
<metadata>Generated by Fontastic.me</metadata>
<defs>
<font id="atlantic-icons" horiz-adv-x="512">
<font-face font-family="atlantic-icons" units-per-em="512" ascent="480" descent="-32"/>
<missing-glyph horiz-adv-x="512" />

<glyph glyph-name="4-way-nav" unicode="&#97;" d="M288 256c0-18-14-32-32-32-18 0-32 14-32 32 0 18 14 32 32 32 18 0 32-14 32-32z m-32 256l-72-107c-5-6-2-10 5-10l134 0c7 0 10 4 5 10z m67-395l-134 0c-7 0-10-5-5-10l72-107 72 107c5 5 2 10-5 10z m-216 211l-107-72 107-72c6-5 10-2 10 5l0 134c0 7-4 10-10 5z m298 0c-5 5-10 2-10-5l0-134c0-7 5-10 10-5l107 72z"/>
<glyph glyph-name="ac-power" unicode="&#98;" d="M256 512c-141 0-256-115-256-256 0-141 115-256 256-256 141 0 256 115 256 256 0 141-115 256-256 256z m0-469c-118 0-213 95-213 213 0 118 95 213 213 213 118 0 213-95 213-213 0-118-95-213-213-213z m93 251l-39-33c-6-5-18-5-24-1l-34 26c-22 16-56 15-77-2l-39-33c-9-8-11-21-3-30 4-5 10-8 16-8 5 0 10 2 14 5l39 33c6 5 18 5 24 1l34-26c22-16 56-15 77 2l39 33c9 7 11 21 3 30-7 9-21 10-30 3z"/>
<glyph glyph-name="account" unicode="&#99;" d="M448 160l-68 0c-9 19-27 32-49 32-22 0-41-13-49-32l-218 0c-12 0-21-10-21-21 0-12 9-22 21-22l218 0c8-18 27-32 49-32 22 0 40 14 49 32l68 0c12 0 21 10 21 22 0 11-9 21-21 21z m-384 192l69 0c8-19 26-32 48-32 22 0 41 13 49 32l218 0c12 0 21 10 21 21 0 12-9 22-21 22l-218 0c-8 18-27 32-49 32-22 0-40-14-48-32l-69 0c-12 0-21-10-21-22 0-11 9-21 21-21z"/>
<glyph glyph-name="acessibility" unicode="&#100;" d="M256 512c-141 0-256-115-256-256 0-141 115-256 256-256 141 0 256 115 256 256 0 141-115 256-256 256z m0-75c18 0 32-14 32-32 0-17-14-32-32-32-18 0-32 15-32 32 0 18 14 32 32 32z m126-105l-83-15 0-82 32-142c1-9-5-17-14-18-8-2-16 4-18 12l-39 137-8 0-39-137c-2-9-10-14-19-12-8 2-14 10-12 18l31 142 0 82-83 15c-9 2-14 10-13 18 2 8 9 13 17 13l118-11 8 0 118 11c8 1 16-6 17-14 0-8-5-15-13-17z"/>
<glyph glyph-name="active-speaker" unicode="&#101;" d="M266 0c-5 0-11 2-15 6-8 9-8 22 0 30 59 59 91 137 91 220 0 83-32 161-91 220-8 8-8 21 0 30 8 8 22 8 30 0 67-67 104-156 104-250 0-94-37-183-104-250-4-4-9-6-15-6z m-117 117c-6 0-11 2-15 7-9 8-9 21 0 30 27 27 42 63 42 102 0 39-15 75-42 102-9 9-9 22 0 30 8 9 21 9 30 0 35-35 55-82 55-132 0-50-20-97-55-132-4-5-10-7-15-7z m0 0c-6 0-11 2-15 7-9 8-9 21 0 30 27 27 42 63 42 102 0 39-15 75-42 102-9 9-9 22 0 30 8 9 21 9 30 0 35-35 55-82 55-132 0-50-20-97-55-132-4-5-10-7-15-7z"/>
<glyph glyph-name="active-speaker-cross" unicode="&#102;" d="M341 251c-1-81-33-157-91-215-8-8-8-21 0-30 5-4 10-6 15-6 6 0 11 2 16 6 66 67 103 156 103 250 0 12-1 24-2 36z m165 255c-9 8-22 8-30 0l-118-117c-17 43-43 83-77 117-9 8-22 8-31 0-8-9-8-22 0-30 35-35 60-76 75-121l-107-107c0 3 0 5 0 8 0 50-19 97-55 132-8 9-22 9-30 0-8-8-8-21 0-30 27-27 42-63 42-102 0-24-5-46-16-67l-153-153c-8-8-8-21 0-30 4-4 10-6 15-6 6 0 11 2 15 6l470 470c8 8 8 21 0 30z"/>
<glyph glyph-name="activities" unicode="&#103;" d="M355 79l-107 63c-3 2-7 6-8 9l-13 29c17 13 30 54 30 77l0 46c0 39-32 70-70 70-39 0-70-31-70-70l0-46c0-24 11-65 29-78l-13-28c-1-3-5-7-8-9l-107-63c-3-1-6-5-7-9l-11-70 373 0-11 70c-1 4-4 8-7 9z m21 244l136 93-136 93c-7 6-13 3-13-7l0-172c0-10 6-13 13-7z m122 37l-135-93 135-94c8-5 14-2 14 7l0 173c0 9-6 12-14 7z"/>
<glyph glyph-name="add" unicode="&#104;" d="M469 277l-192 0 0 192c0 12-9 22-21 22-12 0-21-10-21-22l0-192-192 0c-12 0-22-9-22-21 0-12 10-21 22-21l192 0 0-192c0-12 9-22 21-22 12 0 21 10 21 22l0 192 192 0c12 0 22 9 22 21 0 12-10 21-22 21z"/>
<glyph glyph-name="add-contact" unicode="&#105;" d="M447 121l-136 79c-3 2-8 7-9 11l-16 36c22 15 36 67 36 97l0 59c0 48-39 88-87 88-49 0-88-40-88-88l0-59c0-30 14-82 36-97l-16-36c-1-4-6-9-9-11l-136-79c-3-2-7-7-8-12l-14-88 469 0-14 89c-1 4-5 9-8 11z m44 167l-43 0 0 43c0 11-10 21-21 21-12 0-22-10-22-21l0-43-42 0c-12 0-22-10-22-21 0-12 10-22 22-22l42 0 0-42c0-12 10-22 22-22 11 0 21 10 21 22l0 42 43 0c11 0 21 10 21 22 0 11-10 21-21 21z"/>
<glyph glyph-name="add-contain" unicode="&#106;" d="M256 0c141 0 256 115 256 256 0 141-115 256-256 256-141 0-256-115-256-256 0-141 115-256 256-256z m-107 277l86 0 0 86c0 11 9 21 21 21 12 0 21-10 21-21l0-86 86 0c12 0 21-9 21-21 0-12-9-21-21-21l-86 0 0-87c0-12-9-21-21-21-12 0-21 9-21 21l0 87-86 0c-11 0-21 9-21 21 0 12 10 21 21 21z"/>
<glyph glyph-name="add-outline" unicode="&#107;" d="M256 0c141 0 256 115 256 256 0 141-115 256-256 256-141 0-256-115-256-256 0-141 115-256 256-256z m0 469c118 0 213-95 213-213 0-118-95-213-213-213-118 0-213 95-213 213 0 118 95 213 213 213z m-107-234l86 0 0-86c0-11 9-21 21-21 12 0 21 10 21 21l0 86 86 0c12 0 21 9 21 21 0 12-9 21-21 21l-86 0 0 86c0 11-9 21-21 21-12 0-21-10-21-21l0-86-86 0c-11 0-21-9-21-21 0-12 10-21 21-21z"/>
<glyph glyph-name="admin" unicode="&#108;" d="M355 79l-107 63c-3 2-7 6-8 9l-13 29c17 13 30 54 30 77l0 46c0 39-32 70-70 70-39 0-70-31-70-70l0-46c0-24 11-65 29-78l-13-28c-1-3-5-7-7-9l-108-63c-3-1-6-6-7-9l-11-70 373 0-11 70c-1 4-4 8-7 9z m157 294l0 22-53 18c-1 1-1 2-2 4l25 50-15 15-50-25c-2 1-3 1-5 2l-17 53-22 0-17-53c-2-1-3-1-5-2l-50 25-15-15 25-50c0-2-1-3-2-4l-53-18 0-22 53-17c1-2 2-3 2-5l-25-50 15-15 50 25c2 0 3-1 5-2l17-53 22 0 17 53c2 1 3 2 5 2l50-25 15 15-25 50c1 2 1 3 2 5z m-128-42c-29 0-53 24-53 53 0 29 24 53 53 53 30 0 53-24 53-53 0-29-23-53-53-53z"/>
<glyph glyph-name="alarm" unicode="&#109;" d="M277 479l0 12c0 11-9 21-21 21-12 0-21-10-21-21l0-12c-114-11-203-106-203-223 0-62 25-119 67-159l-61-61c-8-8-8-21 0-30 4-4 10-6 15-6 6 0 11 2 15 6l64 64c35-24 78-38 124-38 46 0 89 14 124 38l64-64c4-4 9-6 15-6 5 0 11 2 15 6 8 9 8 22 0 30l-61 61c42 40 67 97 67 159 0 117-89 212-203 223z m37-302c-4-4-10-6-15-6-6 0-11 2-15 6l-49 49 0 126c0 12 9 21 21 21 12 0 21-9 21-21l0-109 37-36c8-8 8-22 0-30z m-292 313c-29-29-29-76 0-105l105 105c-29 29-76 29-105 0z m468 0c-29 29-76 29-105 0l105-105c29 29 29 76 0 105z"/>
<glyph glyph-name="alerting" unicode="&#110;" d="M448 160l-384 0c-35 0-64-29-64-64l512 0c0 35-29 64-64 64z m-373 181c-9-8-9-21 0-30 8-8 21-8 30 0 40 41 93 63 150 63 56 0 111-22 150-63 9-8 22-8 30 0 4 5 7 10 7 15 0 6-3 11-7 15-48 48-113 75-181 75-68 0-130-27-179-75z m90-120c9-9 22-9 30 0 16 16 38 24 61 24 23 0 44-8 61-24 8-9 21-9 30 0 4 4 6 9 6 15 0 5-2 10-6 15-25 24-57 37-91 37-34 0-66-13-91-37-8-9-8-23 0-30z"/>
<glyph glyph-name="analysis" unicode="&#111;" d="M363 469l106 0 0-341-106 0z m-320-85l106 0 0-256-106 0z m160-107l106 0 0-149-106 0z m288-192l-470 0c-11 0-21-9-21-21 0-12 10-21 21-21l470 0c11 0 21 9 21 21 0 12-10 21-21 21z"/>
<glyph glyph-name="android-home" unicode="&#112;" d="M256 469l-256-150 0-255c0-12 10-21 21-21l470 0c11 0 21 9 21 21l0 255z m213-384l-426 0 0 186 213 124 213-124z"/>
<glyph glyph-name="animation" unicode="&#113;" d="M46 220c-12 68 10 138 59 187 71 71 179 81 261 32-6-20-1-43 14-58 23-23 61-23 83 0 23 22 23 60 0 82-19 20-48 23-71 9-98 63-231 51-317-35-59-58-85-142-71-224 1-10 10-18 21-18 1 0 2 1 3 1 12 2 20 13 18 24z m462 79c-2 11-13 19-24 17-12-2-20-13-18-24 12-68-10-138-59-187-71-70-179-81-261-31 6 19 1 42-14 58-23 23-61 23-83 0-23-23-23-60 0-83 19-20 48-22 71-9 41-27 89-40 136-40 66 0 131 25 181 75 59 59 85 142 71 224z"/>
<glyph glyph-name="annotation" unicode="&#114;" d="M405 512l-298 0c-12 0-22-10-22-21l0-470c0-11 10-21 22-21l298 0c12 0 22 10 22 21l0 470c0 11-10 21-22 21z m-234-373c-12 0-22 9-22 21 0 12 10 21 22 21 11 0 21-9 21-21 0-12-10-21-21-21z m0 96c-12 0-22 9-22 21 0 12 10 21 22 21 11 0 21-9 21-21 0-12-10-21-21-21z m0 96c-12 0-22 9-22 21 0 12 10 21 22 21 11 0 21-9 21-21 0-12-10-21-21-21z m170-192l-85 0c-12 0-21 9-21 21 0 12 9 21 21 21l85 0c12 0 22-9 22-21 0-12-10-21-22-21z m0 96l-85 0c-12 0-21 9-21 21 0 12 9 21 21 21l85 0c12 0 22-9 22-21 0-12-10-21-22-21z m0 96l-85 0c-12 0-21 9-21 21 0 12 9 21 21 21l85 0c12 0 22-9 22-21 0-12-10-21-22-21z"/>
<glyph glyph-name="applause" unicode="&#115;" d="M511 289c-1 3-3 5-5 9-4 3-9 6-13 6-1 0-3 0-4 0-2 0-4 0-5 0-4-1-9-3-13-6l18 18c9 9 9 25 0 35-2 1-3 2-5 3-4 3-8 4-14 4-5 0-9-1-13-4-2-1-4-2-5-3l-17-18c8 7 9 18 6 28-2 3-4 5-6 8-1 1-2 2-4 3 0 0-1 0-1 1-1 1-2 1-3 1-1 0-1 0-2 1-2 0-3 2-4 2-1 0-1 0-2 0-1 0-2 0-3 0-3 0-6-2-9-3 0 0-1 0-1 0-1 0-2-1-3-2-1-1-2-2-4-3l-45-36-109-88c1 2 10 34 16 54 2 7 5 14 5 14 5 14-3 30-16 35-3 1-4 1-6 1-1 0-1 0-2 0-1 0-2 0-2 0 0 0-1 0-1 0-1 0-1 0-2 0-1 0-2 0-3 0 0 0-1 0-1 0-2 0-3-1-5-1 0 0 0 0-1 0-1-1-3-1-4-2 0 0-1-1-1-1-1-2-2-2-3-3 0 0-1-1-1-1-1-1-1-2-3-3 0 0-1-1-1-1-1-1-2-3-2-4l-79-175c-1-3-2-8-1-11 0-2 1-3 1-4 1-2 2-3 4-4l131-134c1-1 2-1 3-2 0 0 1 0 1 0 1 0 1 0 2 0 0 0 1 0 1 0 1 0 2 0 3 1 33 12 90 60 135 103 5 5 10 9 16 15 5 4 9 9 14 13 4 5 8 9 12 13 19 17 29 30 29 30 1 1 2 2 3 4 4 5 5 9 5 14 0 6-1 10-5 14-1 1-2 3-3 4-1 1-2 3-4 4-2 1-3 2-4 2-3 1-6 2-9 2-6 0-13-2-17-8l52 54c10 2 12 13 9 21z m-337 53c9 29 36 49 67 49 30 0 54-18 65-43l60 50c9 9 9 25 0 35-10 10-25 10-34 0l17 17c9 10 9 26 0 35-10 10-25 10-34 0l-17-17c9 10 9 26 0 35-6 6-12 8-19 8-3 0-6-1-8-2 0 0-1 0-1 0-1 0-2-1-3-2-1-1-2-2-4-4l-151-121c1 2 10 34 15 52 2 8 4 13 4 13 6 14-2 30-16 35-2 1-3 1-5 1-1 0-1 0-2 0-1 0-2 0-2 0 0 0-1 0-1 0-2 0-2 0-2 0-1 0-2 0-3 0 0 0-1 0-1 0-1 0-2-1-3-1 0 0 0 0-1 0-1-1-3-1-4-2 0 0-1-1-1-1-1-1-3-1-3-2 0 0-1-1-1-1-1-1-1-2-2-3 0 0-1-2-1-2-1-1-2-3-2-4l-78-173c-3-6-1-15 3-20l95-96z"/>
<glyph glyph-name="application" unicode="&#116;" d="M491 427l-470 0c-11 0-21-10-21-22l0-298c0-12 10-22 21-22l470 0c11 0 21 10 21 22l0 298c0 12-10 22-21 22z m-38-22c9 0 16-7 16-16 0-9-7-16-16-16-9 0-16 7-16 16 0 9 7 16 16 16z m-53 0c9 0 16-7 16-16 0-9-7-16-16-16-9 0-16 7-16 16 0 9 7 16 16 16z m-54 0c9 0 16-7 16-16 0-9-7-16-16-16-8 0-16 7-16 16 0 9 8 16 16 16z m123-277l-426 0 0 224 426 0z m-110 38c1-5 6-7 11-5 4 1 6 6 5 11l-14 37 44 2-96 109 0-146 36 29z"/>
<glyph glyph-name="applications" unicode="&#117;" d="M491 512l-299 0c-12 0-21-10-21-21l0-96-64 0c-12 0-22-10-22-22l0-96-64 0c-11 0-21-9-21-21l0-235c0-11 10-21 21-21l299 0c12 0 21 10 21 21l0 96 64 0c12 0 22 10 22 22l0 96 64 0c11 0 21 9 21 21l0 235c0 11-10 21-21 21z m-91-21c9 0 16-7 16-16 0-9-7-16-16-16-9 0-16 7-16 16 0 9 7 16 16 16z m-101-448l-256 0 0 160 42 0 0-64c0-12 10-22 22-22l192 0z m85 117l-256 0 0 160 43 0 0-64c0 0 0 0 0 0 0-12 9-21 21-21l192 0z m85 117l-256 0 0 160 256 0z m-16 182c-8 0-16 7-16 16 0 9 8 16 16 16 9 0 16-7 16-16 0-9-7-16-16-16z"/>
<glyph glyph-name="arrow-left-tail" unicode="&#118;" d="M491 277l-246 0 0 123c0 15-9 20-22 12l-223-156 223-156c13-8 22-3 22 12l0 123 246 0c11 0 21 9 21 21 0 12-10 21-21 21z"/>
<glyph glyph-name="arrow-right-tail" unicode="&#119;" d="M289 412c-13 8-22 3-22-12l0-123-246 0c-11 0-21-9-21-21 0-12 10-21 21-21l246 0 0-123c0-15 9-20 22-12l223 156z"/>
<glyph glyph-name="at" unicode="&#120;" d="M261 512c-108 0-260-69-260-262 0-168 129-250 261-250 38 0 76 7 102 16l0 48c-27-8-62-16-97-16-103 0-208 62-208 202 0 158 117 215 202 215 110 0 192-60 192-161 0-90-36-143-72-143-21 0-31 10-31 32 0 7 1 16 2 26l22 176-42 0-13-32c-9 23-35 36-59 36-88 0-133-74-133-170 0-79 52-107 98-107 44 0 79 30 89 51 3-27 31-58 69-58 77 0 128 86 128 189 0 135-123 208-250 208z m-24-345c-25 0-53 16-53 61 0 71 27 127 81 127 33 0 44-23 44-56 0-92-34-132-72-132z"/>
<glyph glyph-name="at-contain" unicode="&#121;" d="M262 324c-9 0-17-3-24-7-7-4-12-10-17-18-4-8-7-17-10-28-2-11-3-22-3-34 0-8 1-14 3-20 2-5 5-9 8-13 3-3 7-5 11-7 5-1 9-2 13-2 6 0 13 2 18 5 6 4 11 9 16 17 4 7 8 16 11 28 2 11 3 24 3 40 0 12-2 21-6 28-4 7-12 11-23 11z m-6 188c-141 0-256-115-256-256 0-141 115-256 256-256 141 0 256 115 256 256 0 141-115 256-256 256z m165-273c-4-16-10-30-17-42-8-11-17-21-27-27-11-7-23-11-35-11-7 0-13 2-18 4-6 2-10 6-14 9-4 4-8 8-10 13-3 5-4 9-5 14-2-3-4-7-8-11-4-4-8-8-13-12-6-3-11-6-18-9-7-2-13-3-21-3-8 0-15 1-23 3-8 3-15 7-21 13-7 6-12 13-16 23-4 9-6 21-6 34 0 17 2 32 6 46 4 15 9 27 17 38 7 10 17 18 28 24 11 6 24 9 39 9 8 0 16-2 23-6 8-4 13-10 17-18l7 21 30 0-15-121c-1-6-2-12-2-17 0-15 7-23 21-23 6 0 12 3 18 7 6 5 11 11 15 20 5 8 9 18 11 30 3 13 4 26 4 42 0 17-3 33-9 46-7 14-16 26-27 35-12 10-26 17-41 22-16 5-33 7-52 7-14 0-29-2-45-7-16-5-31-14-44-26-13-11-24-27-33-45-9-19-13-42-13-69 0-24 4-45 12-62 8-18 18-32 32-43 13-12 28-20 44-26 17-5 34-8 51-8 12 0 24 1 35 4 11 2 21 4 30 7l0-33c-8-3-19-5-31-8-12-2-24-3-37-3-22 0-44 4-65 11-21 7-40 18-56 32-17 14-30 32-40 53-10 22-15 47-15 76 0 22 3 42 8 60 6 17 13 32 22 46 9 13 19 24 31 34 11 9 24 17 37 23 13 6 26 10 39 13 13 2 26 4 38 4 22 0 42-3 63-9 20-6 38-16 53-28 16-12 29-27 38-44 10-18 15-39 15-62 0-18-3-34-7-50z"/>
<glyph glyph-name="attachment" unicode="&#122;" d="M339 329c9 9 9 22 1 30-9 9-22 9-31 1l-214-213c-20-20-20-52 0-72 20-20 53-20 73 0l300 299c31 31 31 83 0 114-16 16-36 24-58 24-21 0-42-8-57-24l-300-299c-21-21-32-49-32-78 0-30 11-58 32-79 22-21 50-32 78-32 29 0 57 11 79 32l214 213c8 8 8 22 0 30-8 8-22 8-30 0l-214-213c-27-26-70-26-97 0-13 13-20 30-20 49 0 18 7 35 20 48l300 299c15 15 40 15 55 0 15-15 15-39 0-54l-301-299c-3-4-8-4-12 0-3 3-3 9 0 12z"/>
<glyph glyph-name="audio-broadcast" unicode="&#65;" d="M256 459c-41 0-75-34-75-75l0-171c0-41 34-74 75-74 41 0 75 33 75 74l0 171c0 41-34 75-75 75z m238-78c-4 11-16 17-27 12-11-4-17-16-12-27 9-25 14-51 14-78 0-27-5-53-14-78-5-11 1-23 12-27 2-1 5-2 7-2 9 0 17 5 20 14 12 30 18 61 18 93 0 32-6 63-18 93z m-103-26c-11-4-17-16-14-27 5-13 7-26 7-40 0-14-2-27-7-40-3-11 3-23 14-27 2-1 4-1 7-1 9 0 17 5 20 14 6 18 9 36 9 54 0 18-3 36-9 54-4 11-16 17-27 13z m-346 38c-11 5-23-1-27-12-12-30-18-61-18-93 0-32 6-63 18-93 3-9 11-14 20-14 2 0 5 1 7 2 11 4 17 16 12 27-9 25-14 51-14 78 0 27 5 53 14 78 5 11-1 23-12 27z m76-38c-11 4-23-2-27-13-6-18-9-36-9-54 0-18 3-36 9-54 3-9 11-14 20-14 3 0 5 0 7 1 11 4 17 16 14 27-5 13-7 26-7 40 0 14 2 27 7 40 3 11-3 23-14 27z m194-270l-38 8 0 24-42 0 0-24-38-8c-8 0-16-7-16-16 0-8 8-16 16-16l118 0c8 0 16 8 16 16 0 9-8 16-16 16z"/>
<glyph glyph-name="audio-min" unicode="&#66;" d="M80 352c-12 0-21-10-21-21l0-150c0-11 9-21 21-21l65 0 170-160 0 512-170-160z m333 2c-9 8-22 8-30 0-9-8-9-22 0-30 18-18 28-42 28-68 0-26-10-50-28-68-9-8-9-22 0-30 4-4 9-6 15-6 5 0 11 2 15 6 26 26 40 61 40 98 0 37-14 72-40 98z"/>
<glyph glyph-name="audio-plus" unicode="&#67;" d="M21 352c-11 0-21-10-21-21l0-150c0-11 10-21 21-21l65 0 170-160 0 512-170-160z m416 85c-8 8-22 8-30 0-8-8-8-22 0-30 40-40 62-94 62-151 0-57-22-111-62-151-8-8-8-22 0-30 4-4 9-6 15-6 5 0 11 2 15 6 48 48 75 113 75 181 0 68-27 133-75 181z m-113-83c-8-8-8-22 0-30 18-18 28-42 28-68 0-26-10-50-28-68-8-8-8-22 0-30 4-4 10-6 15-6 5 0 11 2 15 6 26 26 41 61 41 98 0 37-15 72-41 98-8 8-22 8-30 0z"/>
<glyph glyph-name="audio-settings" unicode="&#68;" d="M299 309l6 0c7-12 21-21 36-21 16 0 30 9 37 21l113 0c11 0 21 10 21 22 0 11-10 21-21 21l-113 0c-7 13-21 21-37 21-15 0-29-8-36-21l-6 0c-12 0-22-10-22-21 0-12 10-22 22-22z m192-106l-6 0c-8 12-21 21-37 21-16 0-29-9-37-21l-112 0c-12 0-22-10-22-22 0-11 10-21 22-21l112 0c8-13 21-21 37-21 16 0 29 8 37 21l6 0c11 0 21 10 21 21 0 12-10 22-21 22z m-470 149c-11 0-21-10-21-21l0-150c0-11 10-21 21-21l65 0 170-160 0 512-170-160z"/>
<glyph glyph-name="aux-camera" unicode="&#69;" d="M352 296l0 109c0 12-10 22-21 22l-299 0c-12 0-21-10-21-22l0-298c0-12 9-22 21-22l299 0c11 0 21 10 21 22l0 109c52-31 149-88 149-88l0 256c0 0-97-57-149-88z m-171-157c-64 0-117 52-117 117 0 65 53 117 117 117 65 0 118-52 118-117 0-65-53-117-118-117z m0 192c-41 0-74-34-74-75 0-41 33-75 74-75 41 0 75 34 75 75 0 41-34 75-75 75z"/>
<glyph glyph-name="back" unicode="&#70;" d="M358 363l-177 0 0 84c0 11-8 15-17 9l-165-114 165-115c9-6 17-2 17 9l0 84 177 0c62 0 112-50 112-112 0-62-50-112-112-112-12 0-21-10-21-21 0-12 9-22 21-22 85 0 155 70 155 155 0 85-70 155-155 155z"/>
<glyph glyph-name="backup-data" unicode="&#71;" d="M173 346l-2 2z m296 145l-426 0c-12 0-22-10-22-22l0-426c0-12 10-22 22-22l426 0c12 0 22 10 22 22l0 426c0 12-10 22-22 22z m-213-395c-76 0-139 63-139 139 0 30 10 57 26 80l35-25c-11-16-18-34-18-55 0-53 43-96 96-96 53 0 96 43 96 96 0 42-27 77-64 91l0-54c0-5-4-7-8-4l-109 80 109 77c4 3 8 1 8-4l0-51c61-15 107-69 107-135 0-76-63-139-139-139z"/>
<glyph glyph-name="battery" unicode="&#72;" d="M491 427l-406 0c-11 0-21-10-21-22l0-85-53 0c-6 0-11-5-11-11l0-106c0-6 5-11 11-11l53 0 0-85c0-12 10-22 21-22l406 0c11 0 21 10 21 22l0 298c0 12-10 22-21 22z m-331-267c0-12-10-21-21-21-12 0-22 9-22 21l0 192c0 12 10 21 22 21 11 0 21-9 21-21z m96 0c0-12-10-21-21-21-12 0-22 9-22 21l0 192c0 12 10 21 22 21 11 0 21-9 21-21z m96 0c0-12-10-21-21-21-12 0-22 9-22 21l0 192c0 12 10 21 22 21 11 0 21-9 21-21z m96 0c0-12-10-21-21-21-12 0-22 9-22 21l0 192c0 12 10 21 22 21 11 0 21-9 21-21z"/>
<glyph glyph-name="bell" unicode="&#73;" d="M473 203c-2 6-6 14-9 19l-51 68c-4 5-8 14-9 19 0 0-21 76-21 76-11 72-51 127-126 127l-2 0c-75 0-115-55-126-127 0 0-21-76-21-76-1-5-5-14-9-19l-51-68c-3-5-7-13-9-19l-18-75 470 0z m-174-160c0-24-19-43-43-43-24 0-43 19-43 43 0 23 19 42 43 42 24 0 43-19 43-42z"/>
<glyph glyph-name="bell-cross" unicode="&#74;" d="M464 222l-51 68c-4 5-8 14-9 19 0 0-1 1-1 3-1-1-2-1-2-1l-183-183 273 0-18 75c-2 6-6 14-9 19z m42 284c-9 8-22 8-30 0l-98-98c-15 60-55 104-121 104l-2 0c-75 0-115-55-126-127 0 0-21-76-21-76-1-5-5-14-9-19l-51-68c-3-5-7-13-9-19l-18-75 77 0-92-92c-8-8-8-21 0-30 4-4 10-6 15-6 6 0 11 2 15 6l470 470c8 8 8 21 0 30z m-207-463c0-24-19-43-43-43-24 0-43 19-43 43 0 23 19 42 43 42 24 0 43-19 43-42z"/>
<glyph glyph-name="blocked" unicode="&#75;" d="M256 512c-141 0-256-115-256-256 0-141 115-256 256-256 141 0 256 115 256 256 0 141-115 256-256 256z m0-43c51 0 98-18 135-48l-300-300c-30 37-48 84-48 135 0 118 95 213 213 213z m0-426c-51 0-98 18-135 48l300 300c30-37 48-84 48-135 0-118-95-213-213-213z"/>
<glyph glyph-name="bluetooth" unicode="&#76;" d="M235 2l0 202-81-80-30 30 102 102-102 102 30 30 81-81 0 203 153-153-101-101 101-101z m43 202l0-99 50 50z m0 203l0-100 50 50z"/>
<glyph glyph-name="bluetooth-contain-cross" unicode="&#77;" d="M311 220l48-48-119-117 0 95-103-103c32-33 74-47 121-47 103 0 178 69 178 256 0 31-2 59-6 83z m-39-38l0-50 41 41-25 25z m234 324c-9 8-22 8-30 0l-75-75c-32 58-83 81-143 81-104 0-182-69-182-256 0-53 6-97 18-132l-88-88c-8-8-8-21 0-30 4-4 10-6 15-6 6 0 11 2 15 6l76 76 394 394c8 8 8 21 0 30z m-350-176l23 22 61-61 0 166 94-93-23-23-39 39 0-78-44-44z"/>
<glyph glyph-name="bluetooth-contained" unicode="&#78;" d="M256 512c-104 0-181-69-181-256 0-189 77-256 181-256 104 0 181 69 181 256 0 189-77 256-181 256z m102-338l-118-116 0 163-60-60-23 22 73 73-72 72 22 23 60-60 0 163 118-116-83-82z m-86 204l0-80 40 40z m0-244l40 40-40 40z"/>
<glyph glyph-name="bluetooth-outline" unicode="&#79;" d="M256 512c-104 0-181-69-181-256 0-189 77-256 181-256 104 0 181 69 181 256 0 189-77 256-181 256z m96-428c-22-28-54-41-96-41-34 0-139 0-139 213 0 79 15 136 43 172 22 28 54 41 96 41 34 0 139 0 139-213 0-79-15-136-43-172z m6 254l-118 116 0-163-60 60-22-23 72-72-73-73 23-22 60 60 0-163 118 116-83 82z m-86 40l40-40-40-40z m40-204l-40-40 0 80z"/>
<glyph glyph-name="bookmark" unicode="&#80;" d="M405 512l-298 0c-12 0-22-10-22-21l0-491 171 171 171-171 0 491c0 11-10 21-22 21z"/>
<glyph glyph-name="brightness" unicode="&#81;" d="M437 331l0 106-106 0-75 75-75-75-106 0 0-106-75-75 75-75 0-106 106 0 75-75 75 75 106 0 0 106 75 75z m-181-203l0 256c71 0 128-57 128-128 0-71-57-128-128-128z"/>
<glyph glyph-name="broadcast-message" unicode="&#82;" d="M448 415c-9 8-21 8-30 0-8-9-8-21 0-30 33-33 51-77 51-123 0-45-18-90-51-122-8-9-8-22 0-30 4-4 10-7 15-7 5 0 11 3 15 7 41 40 64 95 64 153 0 56-22 110-64 152z m-68-69c-9 8-22 8-30 0-9-9-9-22 0-30 15-15 22-34 22-55 0-20-7-39-22-54-9-9-9-21 0-30 4-4 9-6 15-6 5 0 10 2 15 6 22 22 35 52 35 84-1 32-13 62-35 85z m-103 22l-256 0c-11 0-21-10-21-21l0-171c0-12 10-21 21-21l22 0 0-64 64 64 170 0c12 0 22 9 22 21l0 171c0 11-10 21-22 21z"/>
<glyph glyph-name="broken-image" unicode="&#83;" d="M405 512l-298 0c-12 0-22-10-22-21l0-470c0-11 10-21 22-21l298 0c12 0 22 10 22 21l0 470c0 11-10 21-22 21z m-69-335c-9-9-22-9-31 0l-49 49-48-49c-9-8-22-8-31 0-8 8-8 22 0 30l49 49-49 49c-8 8-8 22 0 30 9 8 22 8 30 0l49-49 49 49c8 8 22 8 30 0 9-8 9-22 0-30l-49-49 50-49c8-9 8-22 0-30z"/>
<glyph glyph-name="browser" unicode="&#84;" d="M491 427l-470 0c-11 0-21-10-21-22l0-298c0-12 10-22 21-22l470 0c11 0 21 10 21 22l0 298c0 12-10 22-21 22z m-416-96c-12 0-22 9-22 21 0 12 10 21 22 21 11 0 21-9 21-21 0-12-10-21-21-21z m96 0c-12 0-22 9-22 21 0 12 10 21 22 21 11 0 21-9 21-21 0-12-10-21-21-21z m266 0l-170 0c-12 0-22 9-22 21 0 12 10 21 22 21l170 0c12 0 22-9 22-21 0-12-10-21-22-21z"/>
<glyph glyph-name="bug" unicode="&#85;" d="M491 277l-119 0 97 57c11 5 14 18 8 29-6 10-19 13-29 7l-117-67 0 49c0 41-34 75-75 75-41 0-75-34-75-75l0-49-117 67c-10 6-23 3-29-7-6-11-3-24 8-29l97-57-119 0c-11 0-21-9-21-21 0-12 10-21 21-21l119 0-97-57c-11-5-14-19-8-29 4-7 11-10 18-10 4 0 8 1 11 3l117 67 0-49c0-41 34-75 75-75 41 0 75 34 75 75l0 49 117-67c3-2 7-3 11-3 7 0 14 3 18 10 6 10 3 24-8 29l-97 57 119 0c11 0 21 9 21 21 0 12-10 21-21 21z"/>
<glyph glyph-name="call-forward-divert" unicode="&#86;" d="M448 169l-384 0c-35 0-64-29-64-64l512 0c0 34-29 64-64 64z m-316 103l35 35 89-88 90 89c8 9 8 22 0 30-9 9-22 9-30 0l-60-60-59 59 34 34c6 6 4 11-3 12l-132 24 25-132c1-6 6-8 11-3z"/>
<glyph glyph-name="call-handling" unicode="&#87;" d="M395 226l0-45-112 0-28 39-27-37 19-26c9-11 22-18 35-18l112 0 0-45c0-8 5-10 10-5l107 72-107 73c-4 3-9 0-9-8z m-112 105l112 0 0-45c0-8 5-10 10-5l107 72-107 73c-6 4-10 2-10-6l0-46-112 0c-14 0-27-6-34-18l-46-63-46 63c-9 11-22 18-34 18l-102 0c-11 0-21-9-21-21 0-12 10-21 21-21l102 0 54-75-54-75-102 0c-11 0-21-9-21-21 0-12 10-21 21-21l102 0c14 0 26 6 34 18z"/>
<glyph glyph-name="call-log" unicode="&#88;" d="M512 445c-10 6-20 12-31 17-64 32-142 50-225 50-83 0-161-19-225-51-11-6-21-11-31-17l53-71c2-3 8-4 11-2l79 42c10 4 17 13 20 22l15 39c26 4 51 6 78 6 27 0 53-2 78-5l15-39c4-9 10-18 20-22l79-42c4-2 9-1 11 2z m-117-125l-278 0c-11 0-21-10-21-21 0-12 10-22 21-22l278 0c11 0 21 10 21 22 0 11-10 21-21 21z m0-139l-278 0c-11 0-21-9-21-21 0-12 10-21 21-21l278 0c11 0 21 9 21 21 0 12-10 21-21 21z m-139-138l-139 0c-11 0-21-10-21-22 0-11 10-21 21-21l139 0c12 0 21 10 21 21 0 12-9 22-21 22z"/>
<glyph glyph-name="call-rate" unicode="&#89;" d="M256 448c-141 0-256-115-256-257 0-47 11-89 33-127l446 0c22 38 33 80 33 127 0 142-115 257-256 257z m24-294c-18-10-42-4-52 14-2 3-3 7-4 10l-57 145 22 13 98-122c3-2 5-5 7-8 10-18 4-41-14-52z"/>
<glyph glyph-name="callback" unicode="&#90;" d="M256 405c-100 0-181-81-181-181 0-53 23-101 59-134l-53-54c-8-8-8-21 0-30 4-4 10-6 15-6 5 0 11 2 15 6l59 59c25-14 55-22 86-22 31 0 61 7 86 22l59-59c4-4 10-6 15-6 5 0 11 2 15 6 8 9 8 22 0 30l-53 54c36 33 59 81 59 134 0 100-81 181-181 181z m53-249c-4-5-9-7-15-7-5 0-10 2-15 7l-43 43 0 100c0 11 9 21 21 21 12 0 21-10 21-21l0-82 32-32c7-7 7-21-1-29z m139 356l-384 0c-35 0-64-29-64-64l512 0c0 35-29 64-64 64z"/>
<glyph glyph-name="camera" unicode="&#48;" d="M256 309c-41 0-75-33-75-74 0-41 34-75 75-75 41 0 75 34 75 75 0 41-34 74-75 74z m235 96l-96 0-8 33c-2 5-8 10-14 10l-245 0c-6 0-12-5-13-10l-8-33-86 0c-11 0-21-9-21-21l0-299c0-11 10-21 21-21l470 0c11 0 21 10 21 21l0 299c0 12-10 21-21 21z m-235-288c-65 0-117 53-117 118 0 64 52 117 117 117 65 0 117-53 117-117 0-65-52-118-117-118z"/>
<glyph glyph-name="certified" unicode="&#49;" d="M512 256l-58 53 24 75-77 17-17 77-75-24-53 58-53-58-75 24-17-77-77-17 24-75-58-53 58-53-24-75 77-17 17-77 75 24 53-58 53 58 75-24 17 77 77 17-24 75z m-161 40l-125-125-65 65c-8 8-8 22 0 30 8 8 22 8 30 0l35-35 95 95c8 8 22 8 30 0 8-8 8-22 0-30z"/>
<glyph glyph-name="chapters" unicode="&#50;" d="M405 512l-298 0c-12 0-22-10-22-21l0-272c0-16 6-32 16-46l155-173 160 174c10 13 11 29 11 46l0 271c0 11-10 21-22 21z"/>
<glyph glyph-name="charging" unicode="&#51;" d="M491 427l-406 0c-11 0-21-10-21-22l0-85-53 0c-6 0-11-5-11-11l0-106c0-6 5-11 11-11l53 0 0-85c0-12 10-22 21-22l406 0c11 0 21 10 21 22l0 298c0 12-10 22-21 22z m-83-166l-39-33c-21-17-55-18-77-2l-34 26c-6 4-18 4-24-1l-39-33c-4-3-9-5-14-5-6 0-12 3-16 8-8 9-6 23 3 30l39 33c21 17 55 18 77 2l34-26c6-4 18-4 24 1l39 33c9 7 22 6 30-3 8-9 6-23-3-30z"/>
<glyph glyph-name="chats" unicode="&#52;" d="M352 256c12 0 21 10 21 21l0 192c0 12-9 22-21 22l-309 0c-12 0-22-10-22-22l0-192c0-11 10-21 22-21l42 0 0-85 43 42 43 43z m117 32l-53 0 0-11c0-35-29-64-64-64l-160 0 0-106c0-12 10-22 21-22l171 0 64-64 0 64 21 0c12 0 22 10 22 22l0 160c0 11-10 21-22 21z"/>
<glyph glyph-name="check" unicode="&#53;" d="M192 113l-122 122c-8 8-8 21 0 30 9 8 22 8 30 0l92-92 220 220c8 8 21 8 30 0 8-9 8-22 0-30z"/>
<glyph glyph-name="cisco" unicode="&#54;" d="M145 212l20 0 0-100-20 0z m206-30c-1 1-8 6-20 6-15 0-26-11-26-26 0-15 10-26 26-26 11 0 19 4 20 5l0-26c-3-1-11-3-22-3-26 0-50 19-50 50 0 29 21 50 50 50 12 0 20-3 22-4l0-26m-237 0c-1 1-9 6-20 6-16 0-27-11-27-26 0-15 11-26 27-26 11 0 19 4 20 5l0-26c-3-1-11-3-22-3-27 0-51 19-51 50 0 29 22 50 51 50 11 0 19-3 22-4l0-26m304 5c-13 0-23-11-23-25 0-14 10-26 23-26 14 0 23 12 23 26 0 14-9 25-23 25z m47-25c0-28-20-50-47-50-27 0-46 22-46 50 0 27 19 50 46 50 27 0 47-23 47-50z m-213 26c0 0-10 3-18 3-9 0-14-3-14-8 0-6 7-8 11-9l6-2c15-5 21-16 21-28 0-24-20-32-37-32-12 0-23 2-24 2l0 23c2-1 11-4 21-4 11 0 16 3 16 9 0 5-4 8-10 10-1 0-3 1-4 1-13 5-24 13-24 29 0 18 13 30 34 30 11 0 21-3 22-3l0-21m-231 124c0 6-5 11-11 11-5 0-10-5-10-11l0-22c0-6 5-11 10-11 6 0 11 5 11 11l0 22m62 33c0 7-5 12-11 12-5 0-10-5-10-12l0-55c0-6 5-11 10-11 6 0 11 5 11 11l0 55m62 44c0 7-5 12-11 12-5 0-10-5-10-12l0-131c0-7 5-13 10-13 6 0 11 6 11 13l0 131m62-44c0 7-5 12-11 12-5 0-10-5-10-12l0-55c0-6 5-11 10-11 6 0 11 5 11 11l0 55m62-33c0 6-5 11-11 11-5 0-10-5-10-11l0-22c0-6 5-11 10-11 6 0 11 5 11 11l0 22m62 33c0 7-5 12-11 12-5 0-10-5-10-12l0-55c0-6 5-11 10-11 6 0 11 5 11 11l0 55m62 44c0 7-5 12-11 12-5 0-10-5-10-12l0-131c0-7 5-13 10-13 6 0 11 6 11 13l0 131m51-44c0 7-4 12-10 12-6 0-10-5-10-12l0-55c0-6 4-11 10-11 6 0 10 5 10 11l0 55m62-33c0 6-5 11-10 11-6 0-11-5-11-11l0-22c0-6 5-11 11-11 5 0 10 5 10 11l0 22m-10-189l0-2-4 0 0-9-2 0 0 9-5 0 0 2 11 0m0 0l2 0 3-9 0 0 3 9 2 0 0-11-1 0 0 9 0 0-3-9-2 0-3 9 0 0 0-9-1 0 0 11"/>
<glyph glyph-name="clock" unicode="&#55;" d="M256 512c-141 0-256-115-256-256 0-141 115-256 256-256 141 0 256 115 256 256 0 141-115 256-256 256z m0-469c-118 0-213 95-213 213 0 118 95 213 213 213 118 0 213-95 213-213 0-118-95-213-213-213z m21 200l0 120c0 11-9 21-21 21-12 0-21-10-21-21l0-137 59-60c4-4 10-6 15-6 6 0 11 2 15 6 9 9 9 22 0 30z"/>
<glyph glyph-name="close-keyboard" unicode="&#56;" d="M323 149l-134 0c-7 0-9-5-5-10l72-107 73 107c4 5 1 10-6 10z m-35 299c0-18-14-32-32-32-18 0-32 14-32 32 0 18 14 32 32 32 18 0 32-14 32-32z m-213 0c0-18-15-32-32-32-18 0-32 14-32 32 0 18 14 32 32 32 17 0 32-14 32-32z m106 0c0-18-14-32-32-32-17 0-32 14-32 32 0 18 15 32 32 32 18 0 32-14 32-32z m214 0c0-18-15-32-32-32-18 0-32 14-32 32 0 18 14 32 32 32 17 0 32-14 32-32z m106 0c0-18-14-32-32-32-17 0-32 14-32 32 0 18 15 32 32 32 18 0 32-14 32-32z m-426-213c0-18-15-32-32-32-18 0-32 14-32 32 0 17 14 32 32 32 17 0 32-15 32-32z m288 32l-214 0c-17 0-32-15-32-32 0-18 15-32 32-32l214 0c17 0 32 14 32 32 0 17-15 32-32 32z m138-32c0-18-14-32-32-32-17 0-32 14-32 32 0 17 15 32 32 32 18 0 32-15 32-32z m-213 106c0-17-14-32-32-32-18 0-32 15-32 32 0 18 14 32 32 32 18 0 32-14 32-32z m-213 0c0-17-15-32-32-32-18 0-32 15-32 32 0 18 14 32 32 32 17 0 32-14 32-32z m106 0c0-17-14-32-32-32-17 0-32 15-32 32 0 18 15 32 32 32 18 0 32-14 32-32z m214 0c0-17-15-32-32-32-18 0-32 15-32 32 0 18 14 32 32 32 17 0 32-14 32-32z m106 0c0-17-14-32-32-32-17 0-32 15-32 32 0 18 15 32 32 32 18 0 32-14 32-32z"/>
<glyph glyph-name="cloud" unicode="&#57;" d="M512 197c0 53-37 97-86 109 0 3 1 6 1 9 0 62-50 112-112 112-49 0-90-31-105-74-12 6-25 10-39 10-47 0-86-39-86-86 0-3 1-7 1-10l-1 0 0-1c-47-2-85-42-85-90 0-48 38-88 85-90l0-1 320 0 0 1c60 2 107 51 107 111z"/>
<glyph glyph-name="cog" unicode="&#33;" d="M512 234l0 43-107 36c-1 3-2 6-3 8l50 101-30 30-101-50c-2 1-5 2-8 3l-36 107-42 0-36-107c-3-1-6-2-8-3l-101 50-30-30 50-101c-1-2-2-5-3-8l-107-36 0-43 107-35c1-3 2-6 3-9l-50-100 30-30 100 50c3-1 6-2 9-4l36-106 42 0 36 106c3 1 6 3 9 4l100-50 30 30-50 100c1 3 2 6 3 9z m-256-96c-65 0-117 53-117 118 0 65 52 117 117 117 65 0 117-52 117-117 0-65-52-118-117-118z"/>
<glyph glyph-name="comment" unicode="&#34;" d="M491 491l-470 0c-11 0-21-10-21-22l0-298c0-12 10-22 21-22l75 0 0-128 128 128 267 0c11 0 21 10 21 22l0 298c0 12-10 22-21 22z m-256-246l-150 0c-11 0-21 10-21 22 0 11 10 21 21 21l150 0c11 0 21-10 21-21 0-12-10-22-21-22z m192 107l-342 0c-11 0-21 10-21 21 0 12 10 22 21 22l342 0c11 0 21-10 21-22 0-11-10-21-21-21z"/>
<glyph glyph-name="community" unicode="&#35;" d="M190 9c85-23 180-2 247 66 22 21 38 44 50 70l-80 80z m247 428c-21 22-44 38-70 50l-80-80 218-217c21 85 0 180-68 247z m-115 66c-85 23-180 2-247-66-22-21-38-44-50-70l80-80z m-313-181c-23-85-2-180 66-247 21-22 44-38 70-50l80 80z"/>
<glyph glyph-name="compass" unicode="&#36;" d="M437 437c-100 100-262 100-362 0-100-100-100-262 0-362 100-100 262-100 362 0 100 100 100 262 0 362z m-112-210c-6-16-24-34-40-40l-150-52 52 149c6 17 24 35 41 41l149 52z m-37 29c0-18-14-32-32-32-18 0-32 14-32 32 0 18 14 32 32 32 18 0 32-14 32-32z"/>
<glyph glyph-name="computer" unicode="&#37;" d="M342 427l-321 0c-11 0-21-10-21-22l0-213c0-12 10-21 21-21l321 0c11 0 21 9 21 21l0 213c0 12-10 22-21 22z m-22-214l-277 0 0 171 277 0z m-58-96l-81 11-80-11c-8 0-16-7-16-16 0-8 8-16 16-16l161 0c8 0 16 8 16 16 0 9-8 16-16 16z m229 310l-64 0c-12 0-21-10-21-22l0-298c0-12 9-22 21-22l64 0c11 0 21 10 21 22l0 298c0 12-10 22-21 22z"/>
<glyph glyph-name="conference" unicode="&#38;" d="M506 190c0 2-3 4-4 5l-61 35c-3 1-4 4-5 6l-7 17c9 7 17 31 17 44l0 26c0 23-18 41-41 41-22 0-39-18-39-41l0-26c0-14 6-38 17-45l-8-16c-1-2-2-5-4-6l-10-6 66-38c10-7 19-19 21-31l1-6 63 0z m-353 34l-11 6c-2 1-3 4-4 6l-8 17c10 7 17 31 17 44l0 26c0 23-18 41-40 41-23 0-40-18-40-41l0-26c0-14 7-38 17-45l-7-16c-1-2-2-5-4-6l-62-35c-2-1-4-3-4-5l-6-41 63 0 1 6c2 12 11 24 21 31z m263-75c0 4-3 7-5 9l-98 57c-4 2-6 6-8 9l-12 27c8 5 15 18 20 32 4 14 7 27 7 38l0 43c0 35-29 64-64 64-35 0-64-29-64-64l0-43c0-21 11-60 27-70l-12-26c-1-3-4-6-8-8l-98-58c-3-1-5-5-5-9l-11-64 342 0z"/>
<glyph glyph-name="contact" unicode="&#39;" d="M476 110c0 4-4 9-8 11l-135 79c-4 2-8 7-10 11l-16 36c23 15 37 67 37 97l0 59c0 48-40 88-88 88-48 0-88-40-88-88l0-59c0-30 14-82 37-97l-16-36c-2-4-6-9-10-11l-135-79c-4-2-8-7-8-12l-15-88 470 0z"/>
<glyph glyph-name="contact-card" unicode="&#40;" d="M491 427l-470 0c-11 0-21-10-21-22l0-298c0-12 10-22 21-22l43 0 0 22c0 11 10 21 21 21 12 0 22-10 22-21l0-22 298 0 0 22c0 11 10 21 22 21 11 0 21-10 21-21l0-22 43 0c11 0 21 10 21 22l0 298c0 12-10 22-21 22z m-352-288l7 43c0 3 2 5 4 6l68 39c2 1 4 3 4 6l7 18c-11 7-18 34-18 49l0 30c0 24 20 43 44 43 24 0 44-20 44-43l0-30c0-15-8-41-18-48l8-18c1-3 3-5 4-6l68-39c2-1 3-3 4-6l7-43-233 0z"/>
<glyph glyph-name="create-page" unicode="&#41;" d="M320 512l-213 0c-12 0-22-10-22-21l0-470c0-11 10-21 22-21l298 0c12 0 22 10 22 21l0 384z m21-341l-64 0 0-64c0-12-9-22-21-22-12 0-21 10-21 22l0 64-64 0c-12 0-22 9-22 21 0 12 10 21 22 21l64 0 0 64c0 12 9 22 21 22 12 0 21-10 21-22l0-64 64 0c12 0 22-9 22-21 0-12-10-21-22-21z"/>
<glyph glyph-name="data-usage" unicode="&#42;" d="M256 416c36 0 69-12 96-33l69 68c-45 38-102 61-165 61-135 0-245-103-256-235l97 0c11 78 78 139 159 139z m195 5l-68-68c20-27 33-61 33-97 0-36-13-70-33-97l68-68c38 44 61 102 61 165 0 63-23 121-61 165z m-195-325c-81 0-148 61-159 139l-97 0c11-132 121-235 256-235 63 0 120 23 165 61l-69 68c-27-21-60-33-96-33z"/>
<glyph glyph-name="day" unicode="&#43;" d="M469 491l-64 0 0-22c0-11-9-21-21-21-12 0-21 10-21 21l0 22-214 0 0-22c0-11-9-21-21-21-12 0-21 10-21 21l0 22-64 0c-12 0-22-10-22-22l0-426c0-12 10-22 22-22l426 0c12 0 22 10 22 22l0 426c0 12-10 22-22 22z m-213-356c-39 0-63 20-67 50l27 0c5-19 17-29 40-29 25 0 40 14 40 34 0 26-19 35-37 35l-15 0 0 22 15 0c14 0 31 10 31 32 0 20-18 29-36 29-21 0-35-11-37-27l-27 0c4 29 30 48 65 48 32 0 61-15 61-48 0-21-14-37-34-43 21-5 40-20 40-48 0-32-26-55-66-55z"/>
<glyph glyph-name="dc-power" unicode="&#44;" d="M256 512c-141 0-256-115-256-256 0-141 115-256 256-256 141 0 256 115 256 256 0 141-115 256-256 256z m0-469c-118 0-213 95-213 213 0 118 95 213 213 213 118 0 213-95 213-213 0-118-95-213-213-213z m107 234l-214 0c-11 0-21-9-21-21 0-12 10-21 21-21l214 0c11 0 21 9 21 21 0 12-10 21-21 21z"/>
<glyph glyph-name="default-app" unicode="&#45;" d="M469 491l-426 0c-12 0-22-10-22-22l0-426c0-12 10-22 22-22l426 0c12 0 22 10 22 22l0 426c0 12-10 22-22 22z m-405-427l0 320 384 0 0-320z"/>
<glyph glyph-name="delete" unicode="&#46;" d="M491 427l-295 0c-6 0-14-4-18-8l-178-163c0 0 0 0 0 0l178-163c4-4 12-8 18-8l295 0c11 0 21 10 21 22l0 298c0 12-10 22-21 22z m-60-261c-4-4-9-6-15-6-5 0-11 2-15 6l-60 60-59-60c-4-4-10-6-15-6-6 0-11 2-15 6-9 9-9 22 0 30l59 60-59 60c-9 8-9 21 0 30 8 8 21 8 30 0l59-60 60 60c8 8 22 8 30 0 8-9 8-22 0-30l-59-60 59-60c8-8 8-21 0-30z"/>
<glyph glyph-name="desk-phone" unicode="&#47;" d="M0 395l0-278c0-35 29-64 64-64l0 406c-35 0-64-29-64-64z m491 64l-363 0c-12 0-21-10-21-22l0-362c0-12 9-22 21-22l363 0c11 0 21 10 21 22l0 362c0 12-10 22-21 22z m-326-267c-8 0-16 7-16 16 0 9 8 16 16 16 9 0 16-7 16-16 0-9-7-16-16-16z m70 0c-9 0-16 7-16 16 0 9 7 16 16 16 8 0 16-7 16-16 0-9-8-16-16-16z m69 0c-9 0-16 7-16 16 0 9 7 16 16 16 9 0 16-7 16-16 0-9-7-16-16-16z m16 64l-171 0 0 160 171 0z m144 0l-96 0c-9 0-16 7-16 16 0 9 7 16 16 16l96 0c9 0 16-7 16-16 0-9-7-16-16-16z m0 64l-96 0c-9 0-16 7-16 16 0 9 7 16 16 16l96 0c9 0 16-7 16-16 0-9-7-16-16-16z m0 64l-96 0c-9 0-16 7-16 16 0 9 7 16 16 16l96 0c9 0 16-7 16-16 0-9-7-16-16-16z"/>
<glyph glyph-name="diagnostics" unicode="&#58;" d="M320 80l-128 256-51-101-120 0c-11 0-21 9-21 21 0 12 10 21 21 21l94 0 77 155 128-256 51 101 120 0c11 0 21-9 21-21 0-12-10-21-21-21l-94 0z"/>
<glyph glyph-name="dial" unicode="&#59;" d="M288 437c0-17-15-32-32-32-18 0-32 15-32 32 0 18 14 32 32 32 17 0 32-14 32-32z m-181 0c0-17-15-32-32-32-18 0-32 15-32 32 0 18 14 32 32 32 17 0 32-14 32-32z m362 0c0-17-14-32-32-32-17 0-32 15-32 32 0 18 15 32 32 32 18 0 32-14 32-32z m-181-181c0-18-15-32-32-32-18 0-32 14-32 32 0 18 14 32 32 32 17 0 32-14 32-32z m-181 0c0-18-15-32-32-32-18 0-32 14-32 32 0 18 14 32 32 32 17 0 32-14 32-32z m362 0c0-18-14-32-32-32-17 0-32 14-32 32 0 18 15 32 32 32 18 0 32-14 32-32z m-181-181c0-18-15-32-32-32-18 0-32 14-32 32 0 17 14 32 32 32 17 0 32-15 32-32z m-181 0c0-18-15-32-32-32-18 0-32 14-32 32 0 17 14 32 32 32 17 0 32-15 32-32z m362 0c0-18-14-32-32-32-17 0-32 14-32 32 0 17 15 32 32 32 18 0 32-15 32-32z"/>
<glyph glyph-name="directory" unicode="&#60;" d="M427 512l-299 0c-12 0-21-10-21-21l0-54-22 0c-11 0-21-9-21-21l0-320c0-12 10-21 21-21l22 0 0-54c0-11 9-21 21-21l299 0c11 0 21 10 21 21l0 470c0 11-10 21-21 21z m-267-373l7 43c0 3 3 5 5 6l67 39c2 1 4 3 4 6l8 18c-12 7-18 34-18 49l0 29c0 24 20 43 43 43 25 0 44-20 44-43l0-29c0-15-7-41-18-49l7-18c1-3 4-5 5-6l67-39c2-1 3-3 4-6l8-43z"/>
<glyph glyph-name="disc" unicode="&#61;" d="M283 256c0-15-12-27-27-27-15 0-27 12-27 27 0 15 12 27 27 27 15 0 27-12 27-27z m-27 256c-142 0-256-114-256-256 0-142 114-256 256-256 142 0 256 114 256 256 0 142-114 256-256 256z m0-325c-38 0-69 31-69 69 0 38 31 69 69 69 38 0 69-31 69-69 0-38-31-69-69-69z"/>
<glyph glyph-name="disc-not-connected" unicode="&#62;" d="M126 35c38-22 82-35 130-35 142 0 256 114 256 256 0 48-13 92-35 130z m380 471c-9 8-22 8-30 0l-55-55c-44 38-102 61-165 61-142 0-256-114-256-256 0-63 22-121 61-165l-55-55c-8-8-8-21 0-30 5-4 10-6 15-6 6 0 11 2 15 6l470 470c8 8 8 21 0 30z m-312-282c-5 10-7 20-7 32 0 38 31 69 69 69 12 0 22-3 32-7z"/>
<glyph glyph-name="display" unicode="&#63;" d="M491 469l-470 0c-11 0-21-9-21-21l0-299c0-11 10-21 21-21l470 0c11 0 21 10 21 21l0 299c0 12-10 21-21 21z m-22-298l-426 0 0 256 426 0z m-133-96l-80 10-80-10c-9 0-16-8-16-16 0-9 7-16 16-16l160 0c9 0 16 7 16 16 0 8-7 16-16 16z"/>
<glyph glyph-name="dms" unicode="&#64;" d="M57 343c51 0 86-27 86-87 0-56-37-87-88-87l-55 0 0 174z m-32-20l0-134 33 0c38 0 60 23 60 67 0 46-23 67-61 67z m224-154l-53 136 0-136-24 0 0 174 34 0 56-145 52 145 32 0 0-174-23 0 0 135-50-135z m183 84c-40 11-53 25-53 49 0 25 23 45 62 45 38 0 65-18 69-47l-25 0c-3 16-17 26-44 26-26 0-37-10-37-23 0-14 6-20 45-31 49-14 63-28 63-55 0-27-25-52-68-52-38 0-66 21-71 53l25 0c3-20 19-32 45-32 29 0 44 14 44 30 0 16-8 24-55 37z"/>
<glyph glyph-name="document" unicode="&#91;" d="M320 512l0-107 107 0z m-43 0l-170 0c-12 0-22-10-22-21l0-470c0-11 10-21 22-21l298 0c12 0 22 10 22 21l0 342-150 0z"/>
<glyph glyph-name="document-camera" unicode="&#93;" d="M438 43l-363 0c-12 0-21-10-21-22 0-11 10-21 21-21l363 0c12 0 21 10 21 21 0 12-10 22-21 22z m-310 170l96 0c-27-44-75-128-75-128l214 0c0 0-48 84-75 128l96 0c12 0 21 10 21 22l0 256c0 11-9 21-21 21l-256 0c-12 0-21-10-21-21l0-256c0-12 9-22 21-22z"/>
<glyph glyph-name="document-camera-cross" unicode="&#94;" d="M438 43l-305 0-42-43 347 0c12 0 21 10 21 21 0 12-10 22-21 22z m-33 192l0 80-101-102 80 0c12 0 21 10 21 22z m-229-150l187 0c0 0-42 72-70 119z m330 421c-9 8-22 8-30 0l-71-71 0 56c0 11-9 21-21 21l-256 0c-12 0-21-10-21-21l0-256c0-12 9-22 21-22l55 0-177-177c-8-8-8-21 0-30 5-4 10-6 15-6 6 0 11 2 15 6l470 470c8 8 8 21 0 30z"/>
<glyph glyph-name="download" unicode="&#95;" d="M469 64l-426 0c-12 0-22-10-22-21 0-12 10-22 22-22l426 0c12 0 22 10 22 22 0 11-10 21-22 21z m-213 117l93 136c6 8 3 14-7 14l-65 0 0 138c0 12-9 22-21 22-12 0-21-10-21-22l0-138-65 0c-10 0-13-6-7-14z"/>
<glyph glyph-name="download-contain" unicode="&#96;" d="M469 491l-426 0c-12 0-22-10-22-22l0-426c0-12 10-22 22-22l426 0c12 0 22 10 22 22l0 426c0 12-10 22-22 22z m-280-182l46 0 0 86c0 11 9 21 21 21 12 0 21-10 21-21l0-86 46 0c7 0 10-5 6-10l-73-107-73 107c-4 5-1 10 6 10z m206-213l-278 0c-11 0-21 10-21 21 0 12 10 22 21 22l278 0c11 0 21-10 21-22 0-11-10-21-21-21z"/>
<glyph glyph-name="draw" unicode="&#123;" d="M426 75l-362 0 32-43 330 0c12 0 22 10 22 22 0 11-10 21-22 21z m11 337c11 11 14 27 9 41-2 5-5 11-9 15-16 16-41 16-56 0l-273-273-44-100 100 44z"/>
<glyph glyph-name="edit" unicode="&#124;" d="M462 437c-2 5-5 11-10 15-15 16-40 16-56 0l-304-304-44-100 100 44 304 304c11 11 14 27 10 41z"/>
<glyph glyph-name="edit-call" unicode="&#125;" d="M128 512c-23 0-43-19-43-43l0-330 43-139 43 139 0 330c0 24-20 43-43 43z m158-256l46 0 0-96c0-12 9-21 21-21 12 0 21 9 21 21l0 96 45 0c8 0 10 5 6 11l-73 106-73-106c-4-6-1-11 7-11z"/>
<glyph glyph-name="email" unicode="&#126;" d="M491 427l-470 0c-11 0-21-10-21-22l0-298c0-12 10-22 21-22l470 0c11 0 21 10 21 22l0 298c0 12-10 22-21 22z m-54-104l-181-102-181 102c-10 6-14 19-8 29 6 10 19 14 29 8l160-90 160 90c10 6 23 2 29-8 6-10 2-23-8-29z"/>
<glyph glyph-name="emoticons" unicode="&#92;" d="M256 512c-142 0-256-114-256-256 0-142 114-256 256-256 142 0 256 114 256 256 0 142-114 256-256 256z m96-192c18 0 32-14 32-32 0-18-14-32-32-32-18 0-32 14-32 32 0 18 14 32 32 32z m-192 0c18 0 32-14 32-32 0-18-14-32-32-32-18 0-32 14-32 32 0 18 14 32 32 32z m96-224c-65 0-125 39-149 96l298 0c-24-57-84-96-149-96z"/>
<glyph glyph-name="endpoint" unicode="&#57344;" d="M491 395l-470 0c-11 0-21-10-21-22l0-330c0-12 10-22 21-22l470 0c11 0 21 10 21 22l0 330c0 12-10 22-21 22z m-22-43l0-235-426 0 0 235z m-181 107c0-18-14-32-32-32-18 0-32 14-32 32 0 17 14 32 32 32 18 0 32-15 32-32z"/>
<glyph glyph-name="erasor" unicode="&#57345;" d="M442 319l-123 123c-4 4-10 6-15 6-6 0-11-2-15-6l-219-219c-8-8-8-21 0-30l123-123c4-4 10-6 15-6 6 0 11 2 15 6l219 219c8 8 8 21 0 30z m-234-204l-93 93 95 94 92-92z"/>
<glyph glyph-name="error" unicode="&#57346;" d="M373 512l-234 0-139-139 0-234 139-139 234 0 139 139 0 234z m-27-316c8-8 8-21 0-30-4-4-10-6-15-6-6 0-11 2-15 6l-60 60-60-60c-4-4-9-6-15-6-5 0-11 2-15 6-8 9-8 22 0 30l60 60-58 58c-9 8-9 22 0 30 8 9 22 9 30 0l58-58 60 60c8 8 21 8 30 0 8-9 8-22 0-30l-60-60z"/>
<glyph glyph-name="ethernet" unicode="&#57347;" d="M404 363c-8 8-21 8-29 0-8-8-8-21 0-29l78-78-78-78c-8-8-8-21 0-29 4-4 9-6 14-6 6 0 11 2 15 6l107 107z m-345-107l78 78c8 8 8 21 0 29-8 8-21 8-29 0l-107-107 107-107c4-4 9-6 15-6 5 0 10 2 14 6 8 8 8 21 0 29z m218 0c0-11-10-21-21-21-11 0-21 10-21 21 0 11 10 21 21 21 11 0 21-10 21-21z m-93 0c0-11-9-21-20-21-12 0-21 10-21 21 0 11 9 21 21 21 11 0 20-10 20-21z m185 0c0-11-9-21-21-21-11 0-20 10-20 21 0 11 9 21 20 21 12 0 21-10 21-21z"/>
<glyph glyph-name="exernal-calendar" unicode="&#57348;" d="M203 205c-7 0-12-2-16-7l-31-31c-5-4-7-9-7-16 0-6 2-11 7-16 8-8 23-8 32 0l31 31c4 5 6 10 6 16 0 7-2 12-6 16-5 5-10 7-16 7z m136 136c-6 0-12-2-16-6l-31-31c-4-4-6-10-6-16 0-6 2-12 6-16 9-9 24-9 32 0l31 31c4 4 7 10 7 16 0 6-3 12-7 16-4 4-9 6-16 6z m130 150l-64 0 0-22c0-11-9-21-21-21-12 0-21 10-21 21l0 22-214 0 0-22c0-11-9-21-21-21-12 0-21 10-21 21l0 22-64 0c-12 0-22-10-22-22l0-426c0-12 10-22 22-22l426 0c12 0 22 10 22 22l0 426c0 12-10 22-22 22z m-83-218l-31-31c-13-13-29-19-46-19-9 0-20 2-28 6l-19-18c5-8 7-18 7-29 0-17-7-34-19-45l-31-31c-13-13-29-20-46-20-17 0-34 7-46 20-13 12-19 28-19 45 0 18 6 35 19 46l31 31c13 13 29 19 46 19 9 0 20-2 29-6l18 18c-12 25-8 55 12 75l31 31c13 13 29 19 46 19 17 0 34-6 46-19 13-13 19-29 19-46 0-18-7-34-19-46z"/>
<glyph glyph-name="exit" unicode="&#57349;" d="M286 256l156 156c8 8 8 21 0 30-9 8-22 8-30 0l-156-156-156 156c-8 8-21 8-30 0-8-9-8-22 0-30l156-156-156-156c-8-8-8-21 0-30 4-4 10-6 15-6 6 0 11 2 15 6l156 156 156-156c4-4 9-6 15-6 5 0 11 2 15 6 8 9 8 22 0 30z"/>
<glyph glyph-name="exit-contain" unicode="&#57350;" d="M75 75c100-100 262-100 362 0 100 100 100 262 0 362-100 100-262 100-362 0-100-100-100-262 0-362z m121 272l60-61 60 61c9 8 22 8 31 0 8-9 8-22 0-31l-61-60 61-61c8-8 8-21 0-30-9-8-22-8-30 0l-61 61-61-61c-8-9-22-9-30 0-9 8-9 22 0 30l61 61-61 60c-8 9-8 22 0 31 9 8 22 8 31 0z"/>
<glyph glyph-name="exit-outline" unicode="&#57351;" d="M75 75c100-100 262-100 362 0 100 100 100 262 0 362-100 100-262 100-362 0-100-100-100-262 0-362z m332 332c83-83 83-219 0-302-83-83-219-83-302 0-83 83-83 219 0 302 83 83 219 83 302 0z m-242-91l61-60-61-60c-8-9-8-22 0-31 9-8 22-8 31 0l60 61 61-61c8-8 21-8 30 0 8 9 8 22 0 30l-61 61 61 60c8 9 8 22 0 31-9 8-22 8-31 0l-60-61-60 61c-9 8-22 8-31 0-8-9-8-22 0-31z"/>
<glyph glyph-name="export" unicode="&#57352;" d="M256 512c-141 0-256-115-256-256 0-141 115-256 256-256 141 0 256 115 256 256 0 141-115 256-256 256z m67-256l-45 0 0-96c0-12-10-21-22-21-11 0-21 9-21 21l0 96-46 0c-7 0-9 5-5 11l72 106 73-106c4-6 1-11-6-11z"/>
<glyph glyph-name="extension-mobility" unicode="&#57353;" d="M427 306c0 3 0 5 0 9 0 62-50 112-112 112-48 0-90-31-105-74-12 6-24 10-39 10-47 0-86-39-86-86 0-3 0-7 1-10l-1 0c-48-4-85-42-85-91 0-48 37-87 85-91l320 0c60 4 107 52 107 112 0 54-36 97-85 109z m-139-167l-64 0 19 66c-17 5-30 21-30 40 0 24 20 43 43 43 23 0 43-19 43-43 0-19-13-35-30-40z"/>
<glyph glyph-name="fbw" unicode="&#57354;" d="M261 110c9-7 16-3 16 9l0 108 176-117c9-7 16-3 16 9l0 274c0 12-7 16-16 9l-176-118 0 109c0 12-7 16-16 9l-218-146z"/>
<glyph glyph-name="feedback" unicode="&#57355;" d="M507 480l-61 0c-213-100-353-98-353-98-51 0-93-42-93-93 0-51 42-93 93-93 0 0 1 0 4 0l42-154c1-6 7-11 14-11l43 0c7 0 10 4 8 11l-40 144c62-10 159-35 281-91l61 0c3 0 5 2 5 5l0 374c1 4-1 6-4 6z"/>
<glyph glyph-name="feedback-clear" unicode="&#57356;" d="M507 501l-61 0c-213-100-353-98-353-98-51 0-93-41-93-93 0-51 42-92 93-92 0 0 1 0 4 0l42-155c1-5 7-11 14-11l43 0c7 0 10 5 8 11l-40 144c11-2 23-4 35-6 23 74 92 129 174 129 56 0 106-26 139-65l0 230c0 4-2 6-5 6z m-134-213c-76 0-138-62-138-139 0-76 62-138 138-138 77 0 139 62 139 138 0 77-62 139-139 139z m69-177c8-9 8-21 0-30-5-4-10-6-15-6-6 0-11 2-15 6l-39 38-38-38c-4-4-10-6-15-6-5 0-11 2-15 6-8 9-8 21 0 30l38 38-38 39c-8 8-8 21 0 30 9 8 21 8 30 0l38-39 39 39c8 8 21 8 30 0 8-9 8-22 0-30l-39-39z"/>
<glyph glyph-name="feedback-result" unicode="&#57357;" d="M507 501l-61 0c-213-100-353-98-353-98-51 0-93-41-93-93 0-51 42-92 93-92 0 0 1 0 4 0l42-155c1-5 7-11 14-11l43 0c7 0 10 5 8 11l-40 144c11-2 23-4 35-6 23 74 92 129 174 129 56 0 106-26 139-65l0 230c0 4-2 6-5 6z m-187-341c0-23 19-43 43-43 23 0 42 20 42 43 0 23-19 43-42 43-24 0-43-20-43-43z m53 128c-76 0-138-62-138-139 0-76 62-138 138-138 30 0 59 9 81 26l-49 49c-12-7-26-11-42-11-47 0-86 38-86 85 0 47 39 85 86 85 47 0 85-38 85-85 0-16-4-31-13-44l49-49c17 24 28 51 28 82 0 77-62 139-139 139z"/>
<glyph glyph-name="ffw" unicode="&#57358;" d="M251 402c-9 7-16 3-16-9l0-108-176 117c-9 7-16 3-16-9l0-274c0-12 7-16 16-9l176 118 0-109c0-12 7-16 16-9l218 146z"/>
<glyph glyph-name="filter" unicode="&#57359;" d="M493 266l-98 54 98 49c10 6 11 14 0 20l-217 118c-5 3-12 5-19 5-7 0-13-2-19-5l-219-118c-11-6-10-14 0-20l99-49-99-54c-11-5-10-14 0-19l110-55-110-59c-11-6-10-14 0-20l219-109c5-2 12-4 19-4 7 0 14 2 19 4l217 109c10 6 11 14 0 20l-108 59 108 55c10 5 11 14 0 19z m-400 114l164 89c0 0 0 0 0 0 0 0 0 0 0 0l163-89-162-81c0 0 0 0-1 0 0 0-1 0-1 0z m327-256l-162-81c0 0 0 0-1 0 0 0-1 0-1 0l-163 81 82 45 63-31c11-6 28-6 38 0l62 31z"/>
<glyph glyph-name="flagged" unicode="&#57360;" d="M405 469l-277 0 0 22c0 11-10 21-21 21-12 0-22-10-22-21l0-491 43 0 0 213 277 0c12 0 22 10 22 22l0 213c0 12-10 21-22 21z"/>
<glyph glyph-name="folder" unicode="&#57361;" d="M491 405l-253 0-25 43-202 0c-6 0-11-5-11-11l0-352c0-11 10-21 21-21l470 0c11 0 21 10 21 21l0 299c0 12-10 21-21 21z m-54-96l-362 0c-12 0-22 10-22 22 0 11 10 21 22 21l362 0c12 0 22-10 22-21 0-12-10-22-22-22z"/>
<glyph glyph-name="forced-sign-in" unicode="&#57362;" d="M160 234l0-45c0-7 5-10 11-6l106 73-106 72c-6 4-11 2-11-5l0-46-117 0 0 86c0 11-10 21-22 21-11 0-21-10-21-21l0-214c0-11 10-21 21-21 12 0 22 10 22 21l0 85z m96 278c-68 0-133-27-181-75l30-30c40 40 94 62 151 62 118 0 213-95 213-213 0-118-95-213-213-213-57 0-111 22-151 62l-30-30c48-48 113-75 181-75 141 0 256 115 256 256 0 141-115 256-256 256z"/>
<glyph glyph-name="forward-to-mobility" unicode="&#57363;" d="M491 512l-299 0c-12 0-21-10-21-21l0-107 42 0 0 43 256 0 0-342-256 0 0 43-42 0 0-107c0-11 9-21 21-21l299 0c11 0 21 10 21 21l0 470c0 11-10 21-21 21z m-303-279l32-32c5-6 10-4 11 3l25 127-127-25c-7-1-8-6-3-12l32-32-61-60-61 60c-8 9-21 9-30 0-8-8-8-21 0-29l91-91z"/>
<glyph glyph-name="fullscreen" unicode="&#57364;" d="M491 427l-96 0c-12 0-22-10-22-22 0-11 10-21 22-21l74 0 0-75c0-11 10-21 22-21 11 0 21 10 21 21l0 96c0 12-10 22-21 22z m-374 0l-96 0c-11 0-21-10-21-22l0-96c0-11 10-21 21-21 12 0 22 10 22 21l0 75 74 0c12 0 22 10 22 21 0 12-10 22-22 22z m0-299l-74 0 0 75c0 11-10 21-22 21-11 0-21-10-21-21l0-96c0-12 10-22 21-22l96 0c12 0 22 10 22 22 0 11-10 21-22 21z m374 96c-12 0-22-10-22-21l0-75-74 0c-12 0-22-10-22-21 0-12 10-22 22-22l96 0c11 0 21 10 21 22l0 96c0 11-10 21-21 21z"/>
<glyph glyph-name="general-source" unicode="&#57365;" d="M256 512c-134 0-244-103-255-235l202 0 0 65c0 10 6 13 14 8l135-94-135-94c-8-5-14-2-14 8l0 65-203 0c11-132 121-235 255-235 142 0 256 114 256 256 0 142-114 256-255 256z"/>
<glyph glyph-name="general-source-cross" unicode="&#57366;" d="M506 476c8 8 8 21 0 30-9 8-22 8-30 0l-55-55c-44 38-102 61-165 61-134 0-244-103-255-235l202 0 0 65c0 10 6 13 14 8l60-42-72-72-204 0c4-55 27-105 60-144l-55-55c-8-8-8-21 0-30 5-4 10-6 15-6 6 0 11 2 15 6z m-380-441c38-22 82-35 130-35 142 0 256 114 256 256 0 48-13 92-35 130z"/>
<glyph glyph-name="graph" unicode="&#57367;" d="M235 235l0 234c-130 0-235-105-235-234 0-130 105-235 235-235 129 0 234 105 234 235z m277 42c0 130-105 235-235 235l0-235z"/>
<glyph glyph-name="ground" unicode="&#57368;" d="M319 256l0 213c0 12-10 22-22 22-11 0-21-10-21-22l0-213-152 0-102-204c-5-10-1-23 10-28 11-6 23-1 29 9l89 180 113 0-80-161c-5-10-1-23 10-28 3-2 6-3 9-3 8 0 16 5 19 12l90 180 112 0-80-161c-5-10-1-23 10-28 3-2 6-3 9-3 8 0 16 5 19 12l111 223z"/>
<glyph glyph-name="group-call" unicode="&#57369;" d="M288 256c0-18-14-32-32-32-18 0-32 14-32 32 0 18 14 32 32 32 18 0 32-14 32-32z m-153 94l-135-94 135-94c8-5 14-2 14 8l0 172c0 10-6 13-14 8z m242 0c-8 5-14 2-14-8l0-172c0-10 6-13 14-8l135 94z"/>
<glyph glyph-name="headset" unicode="&#57370;" d="M501 235c0 43-26 81-64 97-1 100-82 180-181 180-99 0-180-80-181-180-38-16-64-54-64-97 0-59 47-107 106-107l0 203c0 76 63 138 139 138 76 0 139-62 139-138l0-128c0-65-45-119-105-135-8 11-20 17-34 17-24 0-43-19-43-42 0-24 19-43 43-43 18 0 33 11 39 26 58 12 105 53 128 106 45 12 78 54 78 103z"/>
<glyph glyph-name="headset-cross" unicode="&#57371;" d="M506 506c-9 8-22 8-30 0l-72-71c-32 46-87 77-148 77-99 0-180-80-181-180-38-16-64-54-64-97 0-53 38-97 88-105l-93-94c-8-8-8-21 0-30 4-4 10-6 15-6 6 0 11 2 15 6l470 470c8 8 8 21 0 30z m-389-359l0 184c0 76 63 138 139 138 50 0 93-26 118-65z m320 185c0 5 0 9-1 14l-41-42 0-101c0-65-45-119-105-135-8 11-20 17-34 17-24 0-43-19-43-42 0-24 19-43 43-43 18 0 33 11 39 26 58 12 105 53 128 106 45 12 78 54 78 103 0 43-26 81-64 97z"/>
<glyph glyph-name="help" unicode="&#57372;" d="M256 512c-141 0-256-115-256-256 0-141 115-256 256-256 141 0 256 115 256 256 0 141-115 256-256 256z m0-384c-12 0-21 10-21 21 0 12 9 22 21 22 12 0 21-10 21-22 0-11-9-21-21-21z m47 136l-25-24c0-1-1-1-1-1l0-15c0-12-9-21-21-21-12 0-21 9-21 21l0 15c0 12 5 23 13 32l25 23c5 5 7 12 7 19 0 16-12 28-28 28-15 0-28-12-28-28 0-12-10-21-21-21-12 0-22 9-22 21 0 39 32 71 71 71 39 0 71-32 71-71 0-18-7-36-20-49z"/>
<glyph glyph-name="help-outline" unicode="&#57373;" d="M256 86c-95 0-170 77-170 170 0 95 77 170 170 170 95 0 170-77 170-170 0-95-75-170-170-170z m0 375c-113 0-205-92-205-205 0-113 92-205 205-205 113 0 205 92 205 205 0 113-92 205-205 205z m3-307c-9 0-17 7-17 16 0 9 8 17 17 17 9 0 16-8 16-17 0-9-7-16-16-16m38 108l-21-19c0 0 0 0 0-1l0-12c0-9-7-16-16-16-9 0-17 7-17 16l0 12c0 10 4 19 12 26l20 19c4 4 5 9 5 15 0 13-10 23-23 23-13 0-23-10-23-23 0-9-7-17-16-17-9 0-17 8-17 17 0 31 26 56 56 56 31 0 57-25 57-56-2-15-7-29-17-40"/>
<glyph glyph-name="highlight-line" unicode="&#57374;" d="M150 118l-43 43-64-65 85 0z m313 295l-60 61c-9 8-22 8-30 0l-229-229 15-15-30-30 60-61 30 31 15-16 229 229c8 9 8 22 0 30z m-58-338l-362 0 32-43 330 0c12 0 22 10 22 21 0 12-10 22-22 22z"/>
<glyph glyph-name="highlighter" unicode="&#57375;" d="M43 64l85 0 22 22-43 43z m420 317l-60 61c-9 8-22 8-30 0l-229-229 15-15-30-30 60-61 30 31 15-16 229 229c8 9 8 22 0 30z"/>
<glyph glyph-name="highlighter-check" unicode="&#57376;" d="M469 203l-128 0c-11 0-21-10-21-22l0-128c0-11 10-21 21-21l128 0c12 0 22 10 22 21l0 128c0 12-10 22-22 22z m-3-51l-82-82-40 40c-4 4-4 11 0 15 5 4 11 4 16 0l24-25 67 68c4 4 11 4 15 0 4-5 4-11 0-16z m-445-56l86 0 22 22-43 43z m421 317l-61 61c-8 8-21 8-30 0l-229-229 15-15-30-30 61-61 30 31 15-16 229 229c8 9 8 22 0 30z"/>
<glyph glyph-name="home" unicode="&#57377;" d="M64 320l0-299c0-11 10-21 21-21l118 0 0 203 106 0 0-203 118 0c11 0 21 10 21 21l0 299-192 192z"/>
<glyph glyph-name="hue" unicode="&#57378;" d="M395 162l-137 137-45-45 137-137 99-75 21 21z m-149 209c-8 9-21 9-30 0l-9-9-95 96c-16 16-42 16-58 0-16-16-16-42 0-58l95-96-8-8c-8-8-8-22 0-30 8-9 22-9 30 0l75 75c9 8 9 22 0 30z"/>
<glyph glyph-name="hunt-group" unicode="&#57379;" d="M469 373l-96 0 0 96c0 12-9 22-21 22l-309 0c-12 0-22-10-22-22l0-309c0-12 10-21 22-21l96 0 0-96c0-12 9-22 21-22l309 0c12 0 22 10 22 22l0 309c0 12-10 21-22 21z m-405-192l0 267 267 0 0-75-171 0c-12 0-21-9-21-21l0-171z m384-117l-267 0 0 75 171 0c12 0 21 9 21 21l0 171 75 0z"/>
<glyph glyph-name="idefix" unicode="&#57380;" d="M491 437l-470 0c-11 0-21-9-21-21l0-320c0-12 10-21 21-21l470 0c11 0 21 9 21 21l0 320c0 12-10 21-21 21z m-86-315c0-8-7-15-15-15l-44 0c-8 0-15 7-15 15l0 1c0 9 7 16 15 16l44 0c8 0 15-7 15-16z m48-15c-8 0-16 7-16 16 0 8 8 16 16 16 9 0 16-8 16-16 0-9-7-16-16-16z m16 64l-426 0 0 224 426 0z"/>
<glyph glyph-name="image" unicode="&#57381;" d="M491 427l-470 0c-11 0-21-10-21-22l0-298c0-12 10-22 21-22l470 0c11 0 21 10 21 22l0 298c0 12-10 22-21 22z m-128-267l-217 0c-6 0-9 5-6 11l70 112 46-70 32 47 78-92c5-4 3-8-3-8z m-23 125c-19 0-34 15-34 33 0 19 15 34 34 34 18 0 33-15 33-34 0-18-15-33-33-33z"/>
<glyph glyph-name="image-1" unicode="&#57382;" d="M469 64l-432 0c-12 0-19 10-14 21l142 224 92-139 64 95 157-185c7-9 4-16-9-16z m-46 250c-37 0-67 29-67 67 0 37 30 67 67 67 38 0 68-30 68-67 0-38-30-67-68-67z"/>
<glyph glyph-name="import" unicode="&#57383;" d="M256 0c141 0 256 115 256 256 0 141-115 256-256 256-141 0-256-115-256-256 0-141 115-256 256-256z m-67 256l45 0 0 96c0 12 10 21 22 21 11 0 21-9 21-21l0-96 46 0c7 0 9-5 5-11l-72-106-73 106c-4 6-1 11 6 11z"/>
<glyph glyph-name="inbox" unicode="&#57384;" d="M469 427l0-214-426 0 0 214c-24 0-43-20-43-43l0-277c0-12 10-22 21-22l470 0c11 0 21 10 21 22l0 277c0 23-19 43-43 43z m-213-107l73 97c4 5 1 10-6 10l-135 0c-7 0-9-5-6-10z"/>
<glyph glyph-name="incoming-call" unicode="&#57385;" d="M85 448l0-384c0-35 29-64 64-64l0 512c-35 0-64-29-64-64z m320-171l-96 0 0 45c0 8-5 10-10 5l-107-72 107-73c6-4 10-2 10 6l0 47 96 0c12 0 22 9 22 21 0 12-10 21-22 21z"/>
<glyph glyph-name="info" unicode="&#57386;" d="M256 0c141 0 256 115 256 256 0 141-115 256-256 256-141 0-256-115-256-256 0-141 115-256 256-256z m-15 356c4 4 9 7 15 7 6 0 11-3 15-7 4-4 6-9 6-15 0-5-2-11-6-15-8-8-22-8-30 0-4 4-6 10-6 15 0 6 2 11 6 15z m-6-100c0 12 9 21 21 21 12 0 21-9 21-21l0-107c0-11-9-21-21-21-12 0-21 10-21 21z"/>
<glyph glyph-name="info-outline" unicode="&#57387;" d="M256 461c-113 0-205-92-205-205 0-113 92-205 205-205 113 0 205 92 205 205 0 113-92 205-205 205z m0-376c-94 0-171 77-171 171 0 94 77 171 171 171 94 0 171-77 171-171 0-94-77-171-171-171z m0 265c-5 0-9-2-12-5-3-3-5-8-5-12 0-5 2-9 5-12 6-7 18-7 24 0 3 3 5 7 5 12 0 4-2 9-5 12-3 3-7 5-12 5z m0-68c-9 0-17-8-17-17l0-94c0-10 8-17 17-17 9 0 17 7 17 17l0 94c0 9-8 17-17 17z"/>
<glyph glyph-name="instant-meeting" unicode="&#57388;" d="M469 491l-426 0c-12 0-22-10-22-22l0-426c0-12 10-22 22-22l426 0c12 0 22 10 22 22l0 426c0 12-10 22-22 22z m-213-352c-65 0-117 52-117 117 0 65 52 117 117 117 65 0 117-52 117-117 0-65-52-117-117-117z m34 175c0 1-1 3-2 4-4 5-12 7-14 8-6 3-14 4-21 4-13 0-25-4-35-10-11-6-21-15-27-27 0 0 0 0 0-1 0 0 0 0 0-1-9-14-11-30-9-47 3-16 11-30 23-41 2-1 7-7 14-8 2 0 3 0 5 0 0 0 1 0 1 0 12 6 30 19 46 48l0 1c17 30 19 51 18 64z"/>
<glyph glyph-name="intercom" unicode="&#57389;" d="M469 192l-426 0c-12 0-22 10-22 21 0 12 10 22 22 22l426 0c12 0 22-10 22-22 0-11-10-21-22-21z m-42 171l-342 0c-11 0-21 9-21 21 0 12 10 21 21 21l342 0c11 0 21-9 21-21 0-12-10-21-21-21z m-118-342l-106 0c-12 0-22 10-22 22 0 11 10 21 22 21l106 0c12 0 22-10 22-21 0-12-10-22-22-22z m0 427l-106 0c-12 0-22 10-22 21 0 12 10 22 22 22l106 0c12 0 22-10 22-22 0-11-10-21-22-21z m118-341l-342 0c-11 0-21 9-21 21 0 12 10 21 21 21l342 0c11 0 21-9 21-21 0-12-10-21-21-21z m42 170l-426 0c-12 0-22 10-22 22 0 11 10 21 22 21l426 0c12 0 22-10 22-21 0-12-10-22-22-22z"/>
<glyph glyph-name="intercom-duplex-connected" unicode="&#57390;" d="M85 363l342 0c11 0 21 9 21 21 0 12-10 21-21 21l-342 0c-11 0-21-9-21-21 0-12 10-21 21-21z m224-299l-106 0c-12 0-22-10-22-21 0-12 10-22 22-22l106 0c12 0 22 10 22 22 0 11-10 21-22 21z m-106 384l106 0c12 0 22 10 22 21 0 12-10 22-22 22l-106 0c-12 0-22-10-22-22 0-11 10-21 22-21z m224-299l-342 0c-11 0-21-9-21-21 0-12 10-21 21-21l342 0c11 0 21 9 21 21 0 12-10 21-21 21z m-288 41l0 45 234 0 0-45c0-8 6-10 11-5l107 72-107 73c-6 4-11 2-11-6l0-46-234 0 0 45c0 8-6 10-11 6l-107-73 107-73c5-4 11-1 11 7z"/>
<glyph glyph-name="intercom-whisper" unicode="&#57391;" d="M469 235l-170 0c-12 0-22-10-22-22 0-11 10-21 22-21l170 0c12 0 22 10 22 21 0 12-10 22-22 22z m-384 128l342 0c11 0 21 9 21 21 0 12-10 21-21 21l-342 0c-11 0-21-9-21-21 0-12 10-21 21-21z m224-299l-106 0c-12 0-22-10-22-21 0-12 10-22 22-22l106 0c12 0 22 10 22 22 0 11-10 21-22 21z m-106 384l106 0c12 0 22 10 22 21 0 12-10 22-22 22l-106 0c-12 0-22-10-22-22 0-11 10-21 22-21z m224-299l-342 0c-11 0-21-9-21-21 0-12 10-21 21-21l342 0c11 0 21 9 21 21 0 12-10 21-21 21z m-150 150c0-12 10-22 22-22l170 0c12 0 22 10 22 22 0 11-10 21-22 21l-170 0c-12 0-22-10-22-21z m-138-110l0 46 74 0c12 0 22 9 22 21 0 12-10 21-22 21l-74 0 0 45c0 8-6 10-11 5l-107-72 107-73c5-3 11-1 11 7z"/>
<glyph glyph-name="invite" unicode="&#57392;" d="M491 352l-43 0 0 139c0 6-4 10-11 10l-362 0c-7 0-11-4-11-10l0-139-43 0c-11 0-21-10-21-21l0-299c0-12 10-21 21-21l470 0c11 0 21 9 21 21l0 299c0 11-10 21-21 21z m-86 0l0-128-74-75-150 0-74 75 0 235 298 0z m-58-92c0 2-2 5-4 5l-55 32c-1 1-3 3-4 4l-7 15c8 5 14 23 15 35 0 1 0 3 0 4l0 24c0 20-16 36-36 36-20 0-36-16-36-36l0-24c0-1 0-2 0-4 1-13 6-30 15-36l-7-15c-1-2-2-3-4-5l-55-32c-2-1-4-3-4-4l-5-36 192 0z"/>
<glyph glyph-name="key-expansion-module" unicode="&#57393;" d="M363 512l-214 0c-11 0-21-10-21-21l0-470c0-11 10-21 21-21l214 0c11 0 21 10 21 21l0 470c0 11-10 21-21 21z m-107-320l0-21-85 0 0 298 85 0z m64 64c-12 0-21 10-21 21 0 12 9 22 21 22 12 0 21-10 21-22 0-11-9-21-21-21z m0 85c-12 0-21 10-21 22 0 11 9 21 21 21 12 0 21-10 21-21 0-12-9-22-21-22z m0 86c-12 0-21 9-21 21 0 12 9 21 21 21 12 0 21-9 21-21 0-12-9-21-21-21z"/>
<glyph glyph-name="keyboard" unicode="&#57394;" d="M288 363c0-18-14-32-32-32-18 0-32 14-32 32 0 17 14 32 32 32 18 0 32-15 32-32z m-213 0c0-18-15-32-32-32-18 0-32 14-32 32 0 17 14 32 32 32 17 0 32-15 32-32z m106 0c0-18-14-32-32-32-17 0-32 14-32 32 0 17 15 32 32 32 18 0 32-15 32-32z m214 0c0-18-15-32-32-32-18 0-32 14-32 32 0 17 14 32 32 32 17 0 32-15 32-32z m106 0c0-18-14-32-32-32-17 0-32 14-32 32 0 17 15 32 32 32 18 0 32-15 32-32z m-426-214c0-17-15-32-32-32-18 0-32 15-32 32 0 18 14 32 32 32 17 0 32-14 32-32z m288 32l-214 0c-17 0-32-14-32-32 0-17 15-32 32-32l214 0c17 0 32 15 32 32 0 18-15 32-32 32z m138-32c0-17-14-32-32-32-17 0-32 15-32 32 0 18 15 32 32 32 18 0 32-14 32-32z m-213 107c0-18-14-32-32-32-18 0-32 14-32 32 0 18 14 32 32 32 18 0 32-14 32-32z m-213 0c0-18-15-32-32-32-18 0-32 14-32 32 0 18 14 32 32 32 17 0 32-14 32-32z m106 0c0-18-14-32-32-32-17 0-32 14-32 32 0 18 15 32 32 32 18 0 32-14 32-32z m214 0c0-18-15-32-32-32-18 0-32 14-32 32 0 18 14 32 32 32 17 0 32-14 32-32z m106 0c0-18-14-32-32-32-17 0-32 14-32 32 0 18 15 32 32 32 18 0 32-14 32-32z"/>
<glyph glyph-name="keywords" unicode="&#57395;" d="M187 430l-166-409 47 0 44 110 201 0 42-110 50 0-166 409z m-61-262l87 218 85-218z m361 249c6 4 4 8-2 8l-50 0c-7 0-14 5-16 11l-15 50c-2 6-5 6-7 0l-16-50c-2-6-9-11-16-11l-50 0c-6 0-7-3-2-7l41-32c5-4 8-13 6-19l-16-49-1-2c-2-6 1-8 6-4l42 31c5 4 14 4 19 0l41-31c5-4 8-2 6 4l-16 51c-2 6 0 14 6 19z"/>
<glyph glyph-name="language" unicode="&#57396;" d="M256 512c-141 0-256-115-256-256 0-141 115-256 256-256 141 0 256 115 256 256 0 141-115 256-256 256z m169-386c-12 9-25 17-38 24 10 26 16 55 18 85l63 0c-4-41-20-78-43-109z m-381 109l63 0c2-30 8-59 18-85-13-7-26-15-38-24-23 31-39 68-43 109z m43 151c12-9 25-17 38-24-10-26-16-55-18-85l-63 0c4 41 20 78 43 109z m148-12c-19 2-37 6-54 11 14 26 32 48 54 65z m0-42l0-55-85 0c2 24 7 47 14 69 23-8 46-13 71-14z m0-97l0-55c-25-1-48-6-71-14-7 22-12 45-14 69z m0-97l0-76c-22 17-40 39-54 65 17 5 35 9 54 11z m42 0c19-2 37-6 54-11-14-26-32-48-54-65z m0 42l0 55 85 0c-2-24-7-47-14-69-23 8-46 13-71 14z m0 97l0 55c25 1 48 6 71 14 7-22 12-45 14-69z m0 97l0 76c22-17 40-39 54-65-17-5-35-9-54-11z m57 80c22-9 43-21 61-37-8-5-16-11-25-15-10 19-22 37-36 52z m-192-52c-9 4-17 10-25 15 18 16 38 28 61 37-14-15-26-33-36-52z m0-292c10-19 22-37 36-52-23 9-43 21-61 37 8 5 16 11 25 15z m228 0c9-4 17-10 25-15-18-16-38-28-61-37 14 15 26 33 36 52z m35 167c-2 30-8 59-18 85 13 7 26 15 38 24 23-31 39-68 43-109z"/>
<glyph glyph-name="laser-pointer" unicode="&#57397;" d="M512 256c0 141-115 256-256 256-141 0-256-115-256-256 0-135 103-245 235-256l0 219c-13 7-22 21-22 37 0 23 19 42 43 42 24 0 43-19 43-42 0-16-9-30-22-37l0-219c132 11 235 121 235 256z m-448-22c-12 0-21 10-21 22 0 11 9 21 21 21l109 0c-1-7-2-14-2-21 0-8 1-15 2-22z m100-100c-4-4-9-6-15-6-5 0-11 2-15 6-8 8-8 22 0 30l49 48c7-12 17-23 30-30z m19 165l-49 48c-8 8-8 22 0 30 9 9 22 9 30 0l49-48c-13-7-23-18-30-30z m94 39c-7 2-14 3-21 3-7 0-14-1-21-3l0 110c0 11 9 21 21 21 12 0 21-10 21-21z m171-61c12 0 21-10 21-21 0-12-9-22-21-22l-109 0c1 7 2 14 2 22 0 7-1 14-2 21z m-100 100c8 9 21 9 30 0 8-8 8-22 0-30l-49-48c-7 12-17 23-30 30z m30-243c-4-4-10-6-15-6-6 0-11 2-15 6l-49 48c13 7 23 18 30 30l49-48c8-8 8-22 0-30z"/>
<glyph glyph-name="layout" unicode="&#57398;" d="M0 405l0-298c0-12 10-22 21-22l267 0 0 342-267 0c-11 0-21-10-21-22z m491 22l-160 0 0-150 181 0 0 128c0 12-10 22-21 22z m-160-342l160 0c11 0 21 10 21 22l0 128-181 0z"/>
<glyph glyph-name="leave-meeting" unicode="&#57399;" d="M373 329c-6 4-10 2-10-6l0-46-86 0c-11 0-21-9-21-21 0-12 10-21 21-21l86 0 0-45c0-8 5-10 10-5l107 72z m-42-286l-256 0 128 128 0 298 128 0 0-96 42 0 0 118c0 11-9 21-21 21l-299 0c-11 0-21-10-21-21l0-470c0-11 10-21 21-21l299 0c12 0 21 10 21 21l0 118-42 0z"/>
<glyph glyph-name="left-arrow" unicode="&#57400;" d="M367 21c6 0 11 2 15 7 8 8 8 21 0 30l-198 198 198 198c8 9 8 22 0 30-8 9-22 9-30 0l-228-228 228-228c4-5 10-7 15-7z"/>
<glyph glyph-name="lightbulb" unicode="&#57401;" d="M179 63c8-37 40-63 77-63 37 0 69 26 77 63l13 65-180 0z m77 449c-82 0-149-67-149-149 0-34 11-72 30-106 2-3 3-7 4-10l16-76 78 0 0 149c0 12 9 21 21 21 12 0 21-9 21-21l0-149 78 0 16 76c1 3 2 7 4 10 19 34 30 72 30 106 0 82-67 149-149 149z"/>
<glyph glyph-name="like" unicode="&#57402;" d="M476 222l-23 53c-7 16-30 25-48 25l-149 0c27 48 16 133 16 133-6 47-36 80-80 80l0-117-75-128-85 0 0-224 217-37c17-3 45-6 62-6l34 0c8 0 20 6 24 13l9 13 92 138c11 15 13 40 6 57z"/>
<glyph glyph-name="line-out-left" unicode="&#57403;" d="M405 160c53 0 96 43 96 96 0 53-43 96-96 96-53 0-96-43-96-96 0-53 43-96 96-96z m0 149c30 0 54-24 54-53 0-29-24-53-54-53-29 0-53 24-53 53 0 29 24 53 53 53z m-224-149l64 0c12 0 22 10 22 21l0 150c0 11-10 21-22 21l-64 0-170 160 0-512z"/>
<glyph glyph-name="line-out-right" unicode="&#57404;" d="M107 352c-53 0-96-43-96-96 0-53 43-96 96-96 53 0 96 43 96 96 0 53-43 96-96 96z m0-149c-30 0-54 24-54 53 0 29 24 53 54 53 29 0 53-24 53-53 0-29-24-53-53-53z m224 149l-64 0c-12 0-22-10-22-21l0-150c0-11 10-21 22-21l64 0 170-160 0 512z"/>
<glyph glyph-name="link" unicode="&#57405;" d="M482 482c-19 20-45 30-71 30-26 0-52-10-72-30l-68-68c-34-34-38-87-13-126l-34-34c-17 11-36 16-55 16-26 0-52-10-71-29l-68-68c-40-40-40-104 0-143 19-20 45-30 71-30 26 0 52 10 72 30l68 68c34 34 38 87 13 126l34 34c17-11 36-16 55-16 26 0 52 10 71 29l68 68c40 40 40 104 0 143z m-254-313c0-16-6-30-17-41l-69-68c-10-11-25-17-41-17-16 0-30 6-41 17-23 23-23 60 0 82l68 69c11 11 25 17 41 17 8 0 16-2 24-5l-70-69c-8-9-8-22 0-31 5-4 10-6 16-6 5 0 10 2 15 6l69 69c3-7 5-15 5-23z m224 201l-68-69c-11-11-25-17-41-17-8 0-16 2-23 5l68 69c9 8 9 22 0 30-8 8-22 8-30 0l-69-69c-3 8-5 16-5 24 0 16 6 30 17 41l69 68c11 11 25 17 41 17 16 0 30-6 41-17 11-11 17-25 17-41 0-16-6-30-17-41z"/>
<glyph glyph-name="list-menu" unicode="&#57406;" d="M43 416l426 0c12 0 22 10 22 21 0 12-10 22-22 22l-426 0c-12 0-22-10-22-22 0-11 10-21 22-21z m426-320l-426 0c-12 0-22-10-22-21 0-12 10-22 22-22l426 0c12 0 22 10 22 22 0 11-10 21-22 21z m0 181l-426 0c-12 0-22-9-22-21 0-12 10-21 22-21l426 0c12 0 22 9 22 21 0 12-10 21-22 21z"/>
<glyph glyph-name="list-view" unicode="&#57407;" d="M171 416l298 0c12 0 22 10 22 21 0 12-10 22-22 22l-298 0c-12 0-22-10-22-22 0-11 10-21 22-21z m298-320l-298 0c-12 0-22-10-22-21 0-12 10-22 22-22l298 0c12 0 22 10 22 22 0 11-10 21-22 21z m0 181l-298 0c-12 0-22-9-22-21 0-12 10-21 22-21l298 0c12 0 22 9 22 21 0 12-10 21-22 21z m-362 160c0-23-19-42-43-42-24 0-43 19-43 42 0 24 19 43 43 43 24 0 43-19 43-43z m0-181c0-24-19-43-43-43-24 0-43 19-43 43 0 24 19 43 43 43 24 0 43-19 43-43z m0-181c0-24-19-43-43-43-24 0-43 19-43 43 0 23 19 42 43 42 24 0 43-19 43-42z"/>
<glyph glyph-name="location" unicode="&#57408;" d="M256 512c-94 0-171-76-171-171 0-94 171-341 171-341 0 0 171 247 171 341 0 95-77 171-171 171z m0-277c-59 0-107 47-107 106 0 59 48 107 107 107 59 0 107-48 107-107 0-59-48-106-107-106z"/>
<glyph glyph-name="lock" unicode="&#57409;" d="M427 277l0 64c0 94-77 171-171 171-94 0-171-77-171-171l0-64-42 0 0-256c0-11 9-21 21-21l384 0c12 0 21 10 21 21l0 256z m-299 64c0 71 57 128 128 128 71 0 128-57 128-128l0-64-256 0z"/>
<glyph glyph-name="lock-contain" unicode="&#57410;" d="M256 331c-24 0-43-19-43-43l0-11 86 0 0 11c0 24-19 43-43 43z m85 96l-170 0c-94 0-171-77-171-171 0-94 77-171 171-171l170 0c94 0 171 77 171 171 0 94-77 171-171 171z m22-267c0-12-10-21-22-21l-170 0c-12 0-22 9-22 21l0 117 22 0 0 11c0 47 38 85 85 85 47 0 85-38 85-85l0-11 22 0z"/>
<glyph glyph-name="locked-speaker" unicode="&#57411;" d="M124 506c-9-9-9-22 0-30 58-59 91-137 91-220 0-83-33-161-91-220-9-8-9-21 0-30 4-4 9-6 15-6 5 0 11 2 15 6 66 67 103 156 103 250 0 94-37 183-103 250-9 8-22 8-30 0z m-118-118c-8-8-8-21 0-30 28-27 43-63 43-102 0-39-15-75-43-102-8-9-8-22 0-30 4-5 10-7 15-7 6 0 11 2 15 7 36 35 55 82 55 132 0 50-19 97-55 132-8 9-21 9-30 0z m485-249l0 32c0 47-39 85-86 85-47 0-85-38-85-85l0-32-21 0 0-117c0-12 9-22 21-22l171 0c11 0 21 10 21 22l0 117z m-128 32c0 23 19 42 42 42 24 0 43-19 43-42l0-32-85 0z"/>
<glyph glyph-name="manage-cable" unicode="&#57412;" d="M395 512l0-53c0-16 8-30 21-37l0-310c0-38-31-69-70-69-38 0-69 31-69 69l0 288c0 62-50 112-112 112-61 0-112-50-112-112l0-309 1 0c-13-8-22-22-22-38l0-53 85 0 0 53c0 16-9 30-22 38l1 0 0 309c0 38 31 69 69 69 39 0 70-31 70-69l0-288c0-62 50-112 111-112 62 0 113 50 113 112l0 310c12 7 21 21 21 37l0 53z"/>
<glyph glyph-name="maximize" unicode="&#57413;" d="M209 239l-97-97-46 46c-7 7-13 4-15-5l-30-162 162 30c10 2 12 8 5 15l-46 46 97 97c8 8 8 22 0 30-8 8-22 8-30 0z m120 222c-10-2-12-8-5-15l46-46-97-97c-8-8-8-22 0-30 8-9 22-9 30 0l97 97 46-46c7-7 13-5 15 5l30 162z"/>
<glyph glyph-name="media-viewer" unicode="&#57414;" d="M277 512l0-234 234 0c-10 124-109 223-234 234z m-277-256c0-134 103-244 235-255l0 511c-132-11-235-121-235-256z m480-21l0-21-43 0 0 21-85 0 0-21-43 0 0 21-32 0 0-235 32 0 0 22 43 0 0-22 85 0 0 22 43 0 0-22 32 0 0 235z m-128-171l-43 0 0 32 43 0z m0 75l-43 0 0 32 43 0z m128-75l-43 0 0 32 43 0z m0 75l-43 0 0 32 43 0z"/>
<glyph glyph-name="meet-me" unicode="&#57415;" d="M459 277l-86 0 0 45c0 8-5 10-10 5l-107-72 107-73c6-4 10-2 10 6l0 47 86 0c11 0 21 9 21 21 0 12-10 21-21 21z m-128-234l-256 0 128 128 0 298 128 0 0-96 42 0 0 118c0 11-9 21-21 21l-299 0c-11 0-21-10-21-21l0-470c0-11 10-21 21-21l299 0c12 0 21 10 21 21l0 118-42 0z"/>
<glyph glyph-name="meeting-room" unicode="&#57416;" d="M469 491l-426 0c-12 0-22-10-22-22l0-426c0-12 10-22 22-22l426 0c12 0 22 10 22 22l0 426c0 12-10 22-22 22z m-416-352l6 30c0 1 1 3 3 4l46 26c1 2 3 3 3 5l5 11c-7 6-13 24-13 34l0 20c0 16 14 30 30 30 16 0 30-14 30-30l0-20c0-10-5-28-13-34l6-11c0-1 2-3 3-5l4-2 54 31c2 1 4 3 4 6l7 18c-11 7-18 34-18 49l0 29c0 24 20 43 44 43 24 0 44-20 44-43l0-29c0-15-8-41-19-49l8-18c1-3 3-5 4-6l54-31 4 2c1 2 3 3 3 5l5 11c-7 6-12 24-12 34l0 20c0 16 13 30 29 30 16 0 30-14 30-30l0-20c0-10-5-28-13-34l6-11c0-1 2-3 3-5l46-26c1-1 2-2 3-4l5-30z"/>
<glyph glyph-name="merge-call" unicode="&#57417;" d="M395 189l0 46 96 0c11 0 21 9 21 21 0 12-10 21-21 21l-96 0 0 45c0 8-6 10-11 5l-107-72 107-73c5-3 11-1 11 7z m-278 134l0-46-96 0c-11 0-21-9-21-21 0-12 10-21 21-21l96 0 0-45c0-8 6-10 11-5l107 72-107 73c-5 3-11 1-11-7z"/>
<glyph glyph-name="message" unicode="&#57418;" d="M491 491l-470 0c-11 0-21-10-21-22l0-298c0-12 10-22 21-22l75 0 0-128 128 128 267 0c11 0 21 10 21 22l0 298c0 12-10 22-21 22z"/>
<glyph glyph-name="mic-in" unicode="&#57419;" d="M512 368c0 4-4 6-9 4l-139-71c-17 42-59 72-108 72-49 0-91-30-109-72l-138 71c-5 2-9 0-9-4l0-224c0-5 4-7 9-4l139 71c17-42 59-72 108-72 49 0 91 30 108 72l139-71c5-3 9-1 9 4z m-256-187c-32 0-60 21-70 50l49 25-49 25c10 29 38 50 70 50 32 0 60-21 70-50l-49-25 49-25c-10-29-38-50-70-50z"/>
<glyph glyph-name="micro-blog" unicode="&#57420;" d="M491 427l-470 0c-11 0-21-10-21-22l0-298c0-12 10-22 21-22l470 0c11 0 21 10 21 22l0 298c0 12-10 22-21 22z m-416-288c-12 0-22 9-22 21 0 12 10 21 22 21 11 0 21-9 21-21 0-12-10-21-21-21z m0 96c-12 0-22 9-22 21 0 12 10 21 22 21 11 0 21-9 21-21 0-12-10-21-21-21z m0 96c-12 0-22 9-22 21 0 12 10 21 22 21 11 0 21-9 21-21 0-12-10-21-21-21z m224-192l-128 0c-12 0-22 9-22 21 0 12 10 21 22 21l128 0c11 0 21-9 21-21 0-12-10-21-21-21z m138 96l-266 0c-12 0-22 9-22 21 0 12 10 21 22 21l266 0c12 0 22-9 22-21 0-12-10-21-22-21z m0 96l-266 0c-12 0-22 9-22 21 0 12 10 21 22 21l266 0c12 0 22-9 22-21 0-12-10-21-22-21z"/>
<glyph glyph-name="microphone" unicode="&#57421;" d="M256 107c53 0 96 43 96 96l0 213c0 53-43 96-96 96-53 0-96-43-96-96l0-213c0-53 43-96 96-96z m80-75l-59 8 0 24-42 0 0-24-59-8c-9 0-16-7-16-16 0-9 7-16 16-16l160 0c9 0 16 7 16 16 0 9-7 16-16 16z"/>
<glyph glyph-name="minimize" unicode="&#57422;" d="M484 484c-8 9-22 9-30 0l-97-96-46 46c-6 6-13 4-14-5l-30-162 162 30c9 1 11 8 4 14l-46 46 97 97c9 9 9 22 0 30z m-406-283l47-46-97-97c-9-9-9-22 0-30 8-9 22-9 30 0l97 96 46-45c6-7 13-5 14 4l30 162-162-30c-9-1-11-8-5-14z"/>
<glyph glyph-name="missed-call" unicode="&#57423;" d="M149 64l0 384c0 35-28 64-64 64l0-512c36 0 64 29 64 64z m256 213l-96 0 0 45c0 8-5 10-10 5l-107-72 107-73c6-4 10-2 10 6l0 47 96 0c12 0 22 9 22 21 0 12-10 21-22 21z"/>
<glyph glyph-name="mobile-phone" unicode="&#57424;" d="M405 512l-298 0c-12 0-22-10-22-21l0-470c0-11 10-21 22-21l298 0c12 0 22 10 22 21l0 470c0 11-10 21-22 21z m-277-427l0 342 256 0 0-342z"/>
<glyph glyph-name="mobile-presenter" unicode="&#57425;" d="M405 512l-298 0c-12 0-22-10-22-21l0-470c0-11 10-21 22-21l298 0c12 0 22 10 22 21l0 470c0 11-10 21-22 21z m-277-427l0 342 256 0 0-342z m49 255c-3 2-6 0-6-3l0-162c0-3 3-4 6-3l164 84z"/>
<glyph glyph-name="month" unicode="&#57426;" d="M469 491l-64 0 0-22c0-11-9-21-21-21-12 0-21 10-21 21l0 22-214 0 0-22c0-11-9-21-21-21-12 0-21 10-21 21l0 22-64 0c-12 0-22-10-22-22l0-426c0-12 10-22 22-22l426 0c12 0 22 10 22 22l0 426c0 12-10 22-22 22z m-341-374c-12 0-21 10-21 22 0 11 9 21 21 21 12 0 21-10 21-21 0-12-9-22-21-22z m0 96c-12 0-21 10-21 22 0 11 9 21 21 21 12 0 21-10 21-21 0-12-9-22-21-22z m0 96c-12 0-21 10-21 22 0 11 9 21 21 21 12 0 21-10 21-21 0-12-9-22-21-22z m85-192c-11 0-21 10-21 22 0 11 10 21 21 21 12 0 22-10 22-21 0-12-10-22-22-22z m0 96c-11 0-21 10-21 22 0 11 10 21 21 21 12 0 22-10 22-21 0-12-10-22-22-22z m0 96c-11 0-21 10-21 22 0 11 10 21 21 21 12 0 22-10 22-21 0-12-10-22-22-22z m86-192c-12 0-22 10-22 22 0 11 10 21 22 21 11 0 21-10 21-21 0-12-10-22-21-22z m0 96c-12 0-22 10-22 22 0 11 10 21 22 21 11 0 21-10 21-21 0-12-10-22-21-22z m0 96c-12 0-22 10-22 22 0 11 10 21 22 21 11 0 21-10 21-21 0-12-10-22-21-22z m85-96c-12 0-21 10-21 22 0 11 9 21 21 21 12 0 21-10 21-21 0-12-9-22-21-22z m0 96c-12 0-21 10-21 22 0 11 9 21 21 21 12 0 21-10 21-21 0-12-9-22-21-22z"/>
<glyph glyph-name="more" unicode="&#57427;" d="M85 256c0-24-19-43-42-43-24 0-43 19-43 43 0 24 19 43 43 43 23 0 42-19 42-43z m214 0c0-24-19-43-43-43-24 0-43 19-43 43 0 24 19 43 43 43 24 0 43-19 43-43z m213 0c0-24-19-43-43-43-23 0-42 19-42 43 0 24 19 43 42 43 24 0 43-19 43-43z"/>
<glyph glyph-name="move-page" unicode="&#57428;" d="M320 512l-213 0c-12 0-22-10-22-21l0-470c0-11 10-21 22-21l298 0c12 0 22 10 22 21l0 384z m-53-392c-6-4-11-2-11 5l0 46-96 0c-12 0-21 9-21 21 0 12 9 21 21 21l96 0 0 46c0 7 5 10 11 6l106-73z"/>
<glyph glyph-name="multi-display" unicode="&#57429;" d="M230 334c2 13 12 22 27 22 15 0 24-9 24-22 0-13-6-22-27-42l-49-48 0-24 104 0 0 27-63 0 27 25c25 25 37 39 37 62 0 27-22 46-53 46-30 0-52-18-56-45l0-4 29 0z m261 135l-470 0c-11 0-21-9-21-21l0-299c0-11 10-21 21-21l470 0c11 0 21 10 21 21l0 299c0 12-10 21-21 21z m-22-298l-426 0 0 256 426 0z m-133-96l-80 10-80-10c-9 0-16-8-16-16 0-9 7-16 16-16l160 0c9 0 16 7 16 16 0 8-7 16-16 16z"/>
<glyph glyph-name="music" unicode="&#57430;" d="M444 490l-277-34c-10-2-18-11-18-21l0-272c-9 5-20 8-32 8-41 0-74-34-74-75 0-41 33-75 74-75 42 0 75 34 75 75l0 268 235 27 0-174c-10 4-21 7-32 7-42 0-75-33-75-75 0-41 33-74 75-74 41 0 74 33 74 74l0 320c0 14-12 24-25 21z"/>
<glyph glyph-name="mute" unicode="&#57431;" d="M336 32l-59 8 0 24-42 0 0-24-59-8c-9 0-16-7-16-16 0-9 7-16 16-16l160 0c9 0 16 7 16 16 0 9-7 16-16 16z m-80 75c53 0 96 43 96 96l0 112-171-171c17-23 44-37 75-37z m196 369c9 8 9 21 0 30-8 8-21 8-30 0l-72-72c-8 44-47 78-94 78-53 0-96-43-96-96l0-173-100-100c-9-8-9-22 0-30 4-4 9-6 15-6 5 0 11 2 15 6l262 262z"/>
<glyph glyph-name="no-signal" unicode="&#57432;" d="M75 48c0-15-12-27-27-27-15 0-27 12-27 27 0 15 12 27 27 27 15 0 27-12 27-27z m416 0c0-15-12-27-27-27-15 0-27 12-27 27 0 15 12 27 27 27 15 0 27-12 27-27z m-278 0c0-15-12-27-26-27-15 0-27 12-27 27 0 15 12 27 27 27 14 0 26-12 26-27z m139 0c0-15-12-27-27-27-14 0-26 12-26 27 0 15 12 27 26 27 15 0 27-12 27-27z m68 436c-8 9-21 9-30 0l-134-134-134 134c-9 9-22 9-30 0-9-8-9-21 0-30l134-134-134-134c-9-9-9-22 0-30 4-5 9-7 15-7 5 0 11 2 15 7l134 134 134-134c4-5 10-7 15-7 6 0 11 2 15 7 9 8 9 21 0 30l-134 134 134 134c9 9 9 22 0 30z"/>
<glyph glyph-name="notebook-in" unicode="&#57433;" d="M509 161l-29 38 0 164c0 11-10 21-21 21l-246 0c-11 0-21-10-21-21l0-164-29-38c-2-2-3-6-3-9l0-13c0-6 5-11 11-11l330 0c6 0 11 5 11 11l0 13c0 3-1 7-3 9z m-72 52l-202 0 0 128 202 0z m-330 115l-107-72 107-73c6-4 10-1 10 6l0 134c0 7-4 9-10 5z"/>
<glyph glyph-name="notes" unicode="&#57434;" d="M405 512l-42 0 0-21c0-12-10-22-22-22-11 0-21 10-21 22l0 21-128 0 0-21c0-12-10-22-21-22-12 0-22 10-22 22l0 21-42 0c-12 0-22-10-22-21l0-470c0-11 10-21 22-21l298 0c12 0 22 10 22 21l0 470c0 11-10 21-22 21z m-170-395l-64 0c-12 0-22 10-22 22 0 11 10 21 22 21l64 0c11 0 21-10 21-21 0-12-10-22-21-22z m106 96l-170 0c-12 0-22 10-22 22 0 11 10 21 22 21l170 0c12 0 22-10 22-21 0-12-10-22-22-22z m0 96l-170 0c-12 0-22 10-22 22 0 11 10 21 22 21l170 0c12 0 22-10 22-21 0-12-10-22-22-22z"/>
<glyph glyph-name="numbered-input" unicode="&#57435;" d="M306 462c-80 0-149-44-183-110l35-25c27 55 83 93 148 93 90 0 163-74 163-164 0-90-73-164-163-164-63 0-117 35-145 87l-35-24c35-63 102-105 180-105 114 0 206 92 206 206 0 114-92 206-206 206z m-288-90c-4 3-7 4-9 4-5 0-9-5-9-13l0-222c0-8 4-12 9-12 2 0 5 1 9 3l174 120z m342-78c0 27-22 46-53 46-30 0-52-18-56-45l0-4 29 0 0 3c2 14 12 22 27 22 15 0 24-8 24-22 0-12-6-22-27-42l-49-47 0-25 104 0 0 27-63 0 27 26c25 24 37 39 37 61z"/>
<glyph glyph-name="numbered-output" unicode="&#57436;" d="M244 294c0 27-21 46-52 46-30 0-53-18-56-45l-1-4 29 0 1 3c1 14 11 22 26 22 16 0 25-8 25-22 0-12-6-22-27-42l-50-47 0-25 105 0 0 27-64 0 27 26c26 24 37 39 37 61z m74 136c-32 21-69 32-110 32-114 0-206-92-206-206 0-114 92-206 206-206 39 0 75 10 106 29l-31 31c-23-11-48-18-75-18-90 0-164 74-164 164 0 90 74 164 164 164 29 0 56-8 79-21z m18-58c-3 2-6 3-9 3-2 0-3-1-5-2-2-2-4-5-4-10l0-222c0-2 1-4 1-5 1-5 4-8 8-8 3 0 6 2 9 4l174 120z"/>
<glyph glyph-name="off-hook" unicode="&#57437;" d="M96 448l0-384c0-35 29-64 64-64l0 512c-35 0-64-29-64-64z m245-11c-8 9-21 9-30 0-8-8-8-21 0-30 41-40 63-93 63-150 0-56-22-111-63-150-8-9-8-22 0-30 5-4 10-7 15-7 6 0 11 3 15 7 48 48 75 113 75 181 0 68-27 130-75 179z m-120-90c-9-9-9-22 0-30 16-16 24-38 24-61 0-23-8-44-24-61-9-8-9-21 0-30 4-4 9-6 15-6 5 0 10 2 15 6 24 25 37 57 37 91 0 34-13 66-37 91-9 8-23 8-30 0z"/>
<glyph glyph-name="other-phone" unicode="&#57438;" d="M288 288c0-18-14-32-32-32-18 0-32 14-32 32 0 18 14 32 32 32 18 0 32-14 32-32z m-128 0c0-18-14-32-32-32-18 0-32 14-32 32 0 18 14 32 32 32 18 0 32-14 32-32z m256 0c0-18-14-32-32-32-18 0-32 14-32 32 0 18 14 32 32 32 18 0 32-14 32-32z m-128-128c0-18-14-32-32-32-18 0-32 14-32 32 0 18 14 32 32 32 18 0 32-14 32-32z m-128 0c0-18-14-32-32-32-18 0-32 14-32 32 0 18 14 32 32 32 18 0 32-14 32-32z m256 0c0-18-14-32-32-32-18 0-32 14-32 32 0 18 14 32 32 32 18 0 32-14 32-32z m-128-128c0-18-14-32-32-32-18 0-32 14-32 32 0 18 14 32 32 32 18 0 32-14 32-32z m-128 0c0-18-14-32-32-32-18 0-32 14-32 32 0 18 14 32 32 32 18 0 32-14 32-32z m256 0c0-18-14-32-32-32-18 0-32 14-32 32 0 18 14 32 32 32 18 0 32-14 32-32z m96 413c-10 6-20 12-31 17-64 32-142 50-225 50-83 0-161-19-225-51-11-6-21-11-31-17l53-71c2-3 8-4 11-2l79 42c10 4 17 13 20 22l15 39c26 4 51 6 78 6 27 0 53-2 78-5l15-39c4-9 10-18 20-22l79-42c4-2 9-1 11 2z"/>
<glyph glyph-name="outbox" unicode="&#57439;" d="M189 320l135 0c7 0 9 4 6 10l-73 97-72-97c-6-6-4-10 4-10z m280 107l0-214-426 0 0 214c-24 0-43-20-43-43l0-277c0-12 10-22 21-22l470 0c11 0 21 10 21 22l0 277c0 23-19 43-43 43z"/>
<glyph glyph-name="outgoing-call" unicode="&#57440;" d="M85 448l0-384c0-35 29-64 64-64l0 512c-35 0-64-29-64-64z m235-119c-6 4-11 2-11-6l0-46-96 0c-11 0-21-9-21-21 0-12 10-21 21-21l96 0 0-45c0-8 6-10 11-5l107 72z"/>
<glyph glyph-name="panel-shift-left" unicode="&#57441;" d="M32 0l149 0c12 0 22 10 22 21l0 470c0 11-10 21-22 21l-149 0z m331 189l0 46 96 0c11 0 21 9 21 21 0 12-10 21-21 21l-96 0 0 46c0 7-5 9-11 5l-107-72 107-73c6-4 11-1 11 6z"/>
<glyph glyph-name="panel-shift-right" unicode="&#57442;" d="M480 512l-149 0c-12 0-22-10-22-21l0-470c0-11 10-21 22-21l149 0z m-331-189l0-46-96 0c-11 0-21-9-21-21 0-12 10-21 21-21l96 0 0-46c0-7 5-9 11-5l107 72-107 73c-6 4-11 1-11-6z"/>
<glyph glyph-name="parked" unicode="&#57443;" d="M448 373l-384 0c-35 0-64-28-64-64l512 0c0 36-29 64-64 64z m-64-192l-256 0c-12 0-21-9-21-21 0-12 9-21 21-21l256 0c12 0 21 9 21 21 0 12-9 21-21 21z"/>
<glyph glyph-name="participant-list" unicode="&#57444;" d="M325 158l-98 57c-3 2-6 5-7 8l-12 27c15 12 27 49 27 70l0 43c0 35-29 64-64 64-36 0-64-29-64-64l0-43c0-22 10-59 26-71l-11-26c-1-3-5-6-7-8l-99-57c-2-2-5-5-6-9l-10-64 341 0-10 64c-1 4-3 7-6 9z m-26 183l192 0c11 0 21 10 21 22 0 11-10 21-21 21l-192 0c-12 0-22-10-22-21 0-12 10-22 22-22z m192-64l-192 0c-12 0-22-9-22-21 0-12 10-21 22-21l192 0c11 0 21 9 21 21 0 12-10 21-21 21z m0-106l-96 0c-12 0-22-10-22-22 0-11 10-21 22-21l96 0c11 0 21 10 21 21 0 12-10 22-21 22z"/>
<glyph glyph-name="pass-mouse" unicode="&#57445;" d="M262 262c-33 33-88 33-121 0l-94-93c-33-34-33-89 0-122 33-33 88-33 122 0l93 94c33 33 33 88 0 121z m-34-64l-32-32c-8-8-22-8-30 0-8 9-8 23 0 30l32 32c9 9 23 9 30 0 8-8 9-21 0-30z m263 57c-9 60-36 114-79 157-43 42-97 70-157 79-6 1-14-1-18-7-3-3-6-7-7-11-2-12 7-23 19-25 50-7 96-30 132-66 36-36 58-82 66-132 2-12 13-21 24-19 13 2 21 12 20 24z m-155 81c-21 21-49 37-79 45-7 2-15 0-20-6-2-2-4-6-6-9-3-12 5-24 16-26 23-5 43-17 60-33 16-16 28-36 33-60 3-11 15-18 26-16 12 4 18 15 16 26-9 30-24 58-46 79z"/>
<glyph glyph-name="pause" unicode="&#57446;" d="M384 469l-75 0 0-426 75 0c12 0 21 9 21 21l0 384c0 12-9 21-21 21z m-256 0c-12 0-21-9-21-21l0-384c0-12 9-21 21-21l75 0 0 426z"/>
<glyph glyph-name="pc" unicode="&#57447;" d="M508 134l-39 37 0 234c0 12-9 22-21 22l-384 0c-12 0-21-10-21-22l0-234-39-37c-2-2-4-6-4-9l0-29c0-6 5-11 11-11l490 0c6 0 11 5 11 11l0 29c0 3-2 7-4 9z m-81 250l0-203-342 0 0 203z"/>
<glyph glyph-name="pencil" unicode="&#57448;" d="M457 457c-8 8-19 13-30 13-11 0-22-5-30-13l-302-302-53-113 113 53 302 302c17 16 17 44 0 60z m-370-371l26 57 0 0 30-30 0 0z"/>
<glyph glyph-name="persistent-chat" unicode="&#57449;" d="M504 46c0 2-2 5-4 6l-71 41c-2 1-4 4-5 6l-8 19c11 9 19 36 19 51l0 30c0 26-20 46-46 46-25 0-46-20-46-46l0-30c0-16 8-43 19-51l-8-19c-1-2-3-5-5-6l-51-29-93 54c-2 1-5 4-6 7l-11 24c14 11 25 45 25 64l0 38c0 32-27 58-58 58-32 0-58-26-58-58l0-38c0-20 9-54 24-65l-11-23c-1-3-4-6-6-7l-89-52c-3-2-5-5-6-8l-9-58 512 0z m-13 466l-256 0c-12 0-22-10-22-21l0-160c0-12 10-22 22-22l32 0 0-64 64 64 160 0c11 0 21 10 21 22l0 160c0 11-10 21-21 21z"/>
<glyph glyph-name="phone" unicode="&#57450;" d="M64 511l0 0c1-14 2-28 4-42 12-85 46-176 103-259 57-84 129-148 204-190 13-7 26-14 38-19l0 0 0 0 34 100c2 5 0 10-5 13l-92 52c-11 6-24 8-37 5l-49-12c-21 23-40 47-59 74-18 27-34 54-47 82l28 41c8 11 11 23 9 36l0 0-15 105c-1 5-5 9-10 9l-106 5z"/>
<glyph glyph-name="phone-cross" unicode="&#57451;" d="M441 114l-93 52c-11 6-24 8-36 5l-49-11c-2 2-4 4-6 7l-29-30c45-48 94-88 146-117 13-7 25-13 38-19l0 0 0 0 34 101c2 4-1 10-5 12z m65 392c-9 8-22 8-30 0l-272-272c-18 27-34 54-47 81l28 42c7 10 10 23 8 36l1-1-15 106c-1 5-5 9-10 9l-106 5 0 0 0 0c1-14 2-28 4-42 12-86 46-176 103-260 1-2 3-4 4-6l-168-168c-8-8-8-21 0-30 4-4 10-6 15-6 6 0 11 2 15 6l164 164 29 29 0 0 277 277c8 8 8 21 0 30z"/>
<glyph glyph-name="picture-in-picture" unicode="&#57452;" d="M491 427l-470 0c-11 0-21-10-21-22l0-298c0-12 10-22 21-22l470 0c11 0 21 10 21 22l0 298c0 12-10 22-21 22z m-22-299l-128 0 0 85 128 0z"/>
<glyph glyph-name="pin" unicode="&#57453;" d="M456 318l-138 138c-5 5-12 3-14-3l-33-84-46-46-145-32 79-79-106-159 159 106 79-79 32 145 46 46 84 33c6 2 8 9 3 14z"/>
<glyph glyph-name="play" unicode="&#57454;" d="M58 467c-8 5-15 1-15-7l0-408c0-8 7-12 16-7l410 211z"/>
<glyph glyph-name="play-contained" unicode="&#57455;" d="M256 512c-141 0-256-115-256-256 0-141 115-256 256-256 141 0 256 115 256 256 0 141-115 256-256 256z m-67-351c-4-2-8-1-8 3l0 183c0 4 4 6 7 4l185-95z"/>
<glyph glyph-name="playlist" unicode="&#57456;" d="M43 448l426 0c12 0 22 10 22 21 0 12-10 22-22 22l-426 0c-12 0-22-10-22-22 0-11 10-21 22-21z m128-384l-128 0c-12 0-22-10-22-21 0-12 10-22 22-22l128 0c11 0 21 10 21 22 0 11-10 21-21 21z m298 284l-426 0c-12 0-22-9-22-21 0-12 10-21 22-21l426 0c12 0 22 9 22 21 0 12-10 21-22 21z m-298-142l-128 0c-12 0-22-9-22-21 0-12 10-21 22-21l128 0c11 0 21 9 21 21 0 12-10 21-21 21z m202 50c-64 0-117-53-117-117 0-65 53-118 117-118 65 0 118 53 118 118 0 64-53 117-118 117z m-37-170c-3-1-5 0-5 2l0 101c0 3 2 4 5 2l101-52z"/>
<glyph glyph-name="plugin" unicode="&#57457;" d="M437 331c-21 0-39-9-53-23l0 97c0 12-10 22-21 22l-342 0c-11 0-21-10-21-22l0-97c14 14 32 23 53 23 42 0 75-34 75-75 0-41-33-75-75-75-21 0-39 9-53 23l0-97c0-12 10-22 21-22l342 0c11 0 21 10 21 22l0 97c14-14 32-23 53-23 42 0 75 34 75 75 0 41-33 75-75 75z"/>
<glyph glyph-name="point" unicode="&#57458;" d="M256 512c-142 0-256-114-256-256 0-142 114-256 256-256 142 0 256 114 256 256 0 142-114 256-256 256z m0-469c-117 0-213 96-213 213 0 117 96 213 213 213 117 0 213-96 213-213 0-117-96-213-213-213z m32 213c0-18-14-32-32-32-18 0-32 14-32 32 0 18 14 32 32 32 18 0 32-14 32-32z"/>
<glyph glyph-name="poll" unicode="&#57459;" d="M469 491l-426 0c-12 0-22-10-22-22l0-426c0-12 10-22 22-22l426 0c12 0 22 10 22 22l0 426c0 12-10 22-22 22z m-298-384l-86 0 0 192 86 0z m128 0l-86 0 0 298 86 0z m128 0l-86 0 0 106 86 0z"/>
<glyph glyph-name="popout" unicode="&#57460;" d="M469 491l-426 0c-12 0-22-10-22-22l0-426c0-12 10-22 22-22l426 0c12 0 22 10 22 22l0 426c0 12-10 22-22 22z m-65-189c-1-7-7-9-12-4l-32 32-68-68c-8-8-21-8-30 0-8 9-8 22 0 30l68 68-32 33c-5 5-4 10 3 11l127 24z"/>
<glyph glyph-name="popup-dialogue" unicode="&#57461;" d="M491 480l-299 0c-12 0-21-10-21-21l0-139-150 0c-11 0-21-10-21-21l0-246c0-11 10-21 21-21l299 0c12 0 21 10 21 21l0 139 150 0c11 0 21 10 21 21l0 246c0 11-10 21-21 21z m-192-352l0-53-256 0 0 170 256 0z m170 107l-128 0 0 64c0 11-9 21-21 21l-107 0 0 85 256 0z"/>
<glyph glyph-name="power" unicode="&#57462;" d="M384 478c-10 6-23 2-29-8-6-10-3-23 8-29 65-38 106-109 106-185 0-118-95-213-213-213-118 0-213 95-213 213 0 75 40 146 105 184 11 6 14 19 8 29-6 11-19 14-29 8-78-46-127-130-127-221 0-141 115-256 256-256 141 0 256 115 256 256 0 91-49 176-128 222z m-128-222c12 0 21 10 21 21l0 214c0 11-9 21-21 21-12 0-21-10-21-21l0-214c0-11 9-21 21-21z"/>
<glyph glyph-name="power-contain" unicode="&#57463;" d="M469 491l-426 0c-12 0-22-10-22-22l0-426c0-12 10-22 22-22l426 0c12 0 22 10 22 22l0 426c0 12-10 22-22 22z m-93-230l-39-33c-21-17-55-18-77-2l-34 26c-6 4-18 4-24-1l-39-33c-4-3-9-5-14-5-6 0-12 3-16 8-8 9-6 22 3 30l39 33c21 17 55 18 77 2l34-26c6-4 18-4 24 1l39 33c9 7 22 6 30-3 8-9 6-23-3-30z"/>
<glyph glyph-name="presentation" unicode="&#57464;" d="M491 427l-470 0c-11 0-21-10-21-22l0-298c0-12 10-22 21-22l470 0c11 0 21 10 21 22l0 298c0 12-10 22-21 22z m-320-278l-86 0 0 96 86 0z m128 0l-86 0 0 160 86 0z m128 0l-86 0 0 214 86 0z"/>
<glyph glyph-name="prevent-download" unicode="&#57465;" d="M469 64l-426 0c-12 0-22-10-22-21 0-12 10-22 22-22l426 0c12 0 22 10 22 22 0 11-10 21-22 21z m-367 113c4-4 10-6 15-6 6 0 11 2 15 6l124 123 124-123c4-4 9-6 15-6 5 0 11 2 15 6 8 8 8 22 0 30l-124 124 124 123c8 9 8 22 0 30-9 9-22 9-30 0l-124-123-124 123c-8 9-21 9-30 0-8-8-8-21 0-30l124-123-124-124c-8-8-8-22 0-30z"/>
<glyph glyph-name="prevent-download-contain" unicode="&#57466;" d="M469 491l-426 0c-12 0-22-10-22-22l0-426c0-12 10-22 22-22l426 0c12 0 22 10 22 22l0 426c0 12-10 22-22 22z m-303-133c-8 9-8 22 0 30 9 9 22 9 30 0l60-59 60 59c8 9 21 9 30 0 8-8 8-21 0-30l-60-59 60-60c8-8 8-22 0-30-4-4-10-6-15-6-6 0-11 2-15 6l-60 59-60-59c-4-4-9-6-15-6-5 0-11 2-15 6-8 8-8 22 0 30l60 60z m229-262l-278 0c-11 0-21 10-21 21 0 12 10 22 21 22l278 0c11 0 21-10 21-22 0-11-10-21-21-21z"/>
<glyph glyph-name="print" unicode="&#57467;" d="M491 384l-107 0 0 107c0 11-10 21-21 21l-214 0c-11 0-21-10-21-21l0-107-107 0c-11 0-21-10-21-21l0-214c0-11 10-21 21-21l64 0 0 85 342 0 0-85 64 0c11 0 21 10 21 21l0 214c0 11-10 21-21 21z m-43-85c-12 0-21 9-21 21 0 12 9 21 21 21 12 0 21-9 21-21 0-12-9-21-21-21z m-320-278c0-11 10-21 21-21l214 0c11 0 21 10 21 21l0 150-256 0z"/>
<glyph glyph-name="priority" unicode="&#57468;" d="M256 512c-141 0-256-115-256-256 0-141 115-256 256-256 141 0 256 115 256 256 0 141-115 256-256 256z m15-367c-4-4-9-6-15-6-6 0-11 2-15 6-4 4-6 9-6 15 0 6 2 11 6 15 8 8 22 8 30 0 4-4 6-9 6-15 0-6-2-11-6-15z m6 100c0-11-9-21-21-21-12 0-21 10-21 21l0 118c0 11 9 21 21 21 12 0 21-10 21-21z"/>
<glyph glyph-name="privacy" unicode="&#57469;" d="M256 512c-141 0-256-115-256-256 0-141 115-256 256-256 141 0 256 115 256 256 0 141-115 256-256 256z m32-341l-64 0 16 88c-16 6-27 22-27 40 0 23 19 42 43 42 24 0 43-19 43-42 0-18-11-34-27-40z"/>
<glyph glyph-name="private" unicode="&#57470;" d="M320 293c0-14-12-26-27-26-14 0-26 12-26 26 0 15 12 27 26 27 15 0 27-12 27-27z m-64 219c-141 0-256-115-256-256 0-141 115-256 256-256 141 0 256 115 256 256 0 141-115 256-256 256z m37-288c-11 0-22 3-31 8l-33-34 21-21-32-32-21 21-11-11c-4-4-10-6-15-6-6 0-11 2-15 6-9 9-9 22 0 31l76 76c-5 9-8 20-8 31 0 39 31 70 69 70 39 0 70-31 70-70 0-38-31-69-70-69z"/>
<glyph glyph-name="profile-settings" unicode="&#57471;" d="M355 79l-107 63c-3 2-7 6-8 9l-13 29c17 13 30 54 30 77l0 46c0 39-32 70-70 70-39 0-70-31-70-70l0-46c0-24 11-65 29-78l-13-28c-1-3-5-7-8-9l-107-63c-3-1-6-6-7-9l-11-70 373 0-11 70c-1 4-4 8-7 9z m-56 369l6 0c7-13 21-21 36-21 16 0 30 8 37 21l113 0c11 0 21 10 21 21 0 12-10 22-21 22l-113 0c-7 12-21 21-37 21-15 0-29-9-36-21l-6 0c-12 0-22-10-22-22 0-11 10-21 22-21z m192-107l-6 0c-8 13-21 22-37 22-16 0-29-9-37-22l-112 0c-12 0-22-9-22-21 0-12 10-21 22-21l112 0c8-13 21-22 37-22 16 0 29 9 37 22l6 0c11 0 21 9 21 21 0 12-10 21-21 21z"/>
<glyph glyph-name="proximity" unicode="&#57472;" d="M504 424c-70 57-158 88-248 88-90 0-178-31-248-88-9-7-11-21-3-30 7-9 21-10 30-3 62 51 141 78 221 78 80 0 159-27 221-78 4-3 9-5 14-5 6 0 12 3 16 8 8 9 6 23-3 30z m-248-189c-65 0-117-53-117-118 0-64 52-117 117-117 65 0 117 53 117 117 0 65-52 118-117 118z m0-192c-41 0-75 33-75 74 0 41 34 75 75 75 41 0 75-34 75-75 0-41-34-74-75-74z m154 279c-45 34-98 51-154 51-56 0-109-17-154-51-9-7-11-21-4-30 7-9 20-11 30-4 37 28 81 43 128 43 47 0 91-15 128-43 4-3 9-4 13-4 7 0 13 2 17 8 7 9 5 23-4 30z"/>
<glyph glyph-name="proximity-not-connected" unicode="&#57473;" d="M313 221l-33-32c30-10 51-38 51-71 0-41-34-74-75-74-33 0-60 21-71 50l-32-32c20-36 59-61 103-61 65 0 117 52 117 117 0 45-24 83-60 103z m193 284c-9 8-22 8-30 0l-37-37c-56 29-119 45-183 45-90 0-178-31-248-88-9-7-11-21-3-30 7-9 21-10 30-3 62 50 141 78 221 78 52 0 104-12 151-34l-74-74c-25 8-50 12-77 12-56 0-109-18-154-51-9-7-11-21-4-30 7-9 20-11 30-4 37 28 81 43 128 43 14 0 28-2 42-5l-292-292c-8-8-8-21 0-30 4-4 10-6 15-6 6 0 11 2 15 6l470 470c8 8 8 22 0 30z"/>
<glyph glyph-name="quality" unicode="&#57474;" d="M405 512l-298 0c-12 0-22-10-22-21l0-470c0-11 10-21 22-21l298 0c12 0 22 10 22 21l0 470c0 11-10 21-22 21z m-49-218l-132-132-79 79c-8 8-8 22 0 30 8 8 22 8 30 0l49-49 102 102c9 9 22 9 30 0 9-8 9-21 0-30z"/>
<glyph glyph-name="question-circle" unicode="&#57475;" d="M256 512c-141 0-256-115-256-256 0-141 115-256 256-256 141 0 256 115 256 256 0 141-115 256-256 256z m0-384c-12 0-21 10-21 21 0 12 9 22 21 22 12 0 21-10 21-22 0-11-9-21-21-21z m47 136l-25-24c0-1-1-1-1-1l0-15c0-12-9-21-21-21-12 0-21 9-21 21l0 15c0 12 5 23 13 32l25 23c5 5 7 12 7 19 0 16-12 28-28 28-15 0-28-12-28-28 0-12-10-21-21-21-12 0-22 9-22 21 0 39 32 71 71 71 39 0 71-32 71-71 0-18-7-36-20-49z"/>
<glyph glyph-name="raise-hand" unicode="&#57476;" d="M453 352c0 18-14 32-32 32-18 0-32-14-32-32l0 96c0 18-14 32-32 32-18 0-32-14-32-32l0 32c0 18-14 32-32 32-18 0-32-14-32-32l0-32c0 18-14 32-32 32-18 0-32-14-32-32l-30-251c-2 4-21 41-34 62-5 10-8 16-8 16-9 18-29 26-47 17-18-8-26-30-17-48l85-229c3-9 13-15 21-15l240 0c6 0 10 3 11 7 39 78 35 345 35 345z"/>
<glyph glyph-name="read-email" unicode="&#57477;" d="M256 512l-256-149 0-342c0-11 10-21 21-21l470 0c11 0 21 10 21 21l0 342z m0-298l-212 124 213 124 212-124z"/>
<glyph glyph-name="recent-apps" unicode="&#57478;" d="M480 459l-363 0c-17 0-32-15-32-32l0-11 384 0 0-277 11 0c18 0 32 14 32 32l0 256c0 17-14 32-32 32z m-85-86l-363 0c-18 0-32-14-32-32l0-256c0-17 14-32 32-32l363 0c17 0 32 15 32 32l0 256c0 18-15 32-32 32z m-11-277l-341 0 0 235 341 0z"/>
<glyph glyph-name="record" unicode="&#57479;" d="M469 256c0-118-95-213-213-213-118 0-213 95-213 213 0 118 95 213 213 213 118 0 213-95 213-213z"/>
<glyph glyph-name="redial" unicode="&#57480;" d="M256 449l0 54c0 8-5 11-12 7l-116-82 116-82c7-5 12-3 12 6l0 54c100 0 181-81 181-181 0-100-81-181-181-181-100 0-181 81-181 181 0 57 26 108 67 141l-36 25c-46-40-74-100-74-166 0-124 100-224 224-224 124 0 224 100 224 224 0 124-100 224-224 224z"/>
<glyph glyph-name="refresh" unicode="&#57481;" d="M256 449l0 54c0 8 5 11 12 6l116-82-116-81c-7-5-12-2-12 6l0 54c-100 0-181-81-181-181 0-100 81-182 181-182 100 0 181 82 181 182 0 56-26 107-67 140l36 26c45-41 74-100 74-166 0-124-100-224-224-224-124 0-224 100-224 224 0 123 100 224 224 224z"/>
<glyph glyph-name="remove" unicode="&#57482;" d="M469 277l-426 0c-12 0-22-9-22-21 0-12 10-21 22-21l426 0c12 0 22 9 22 21 0 12-10 21-22 21z"/>
<glyph glyph-name="remove-contact" unicode="&#57483;" d="M447 121l-136 79c-3 2-8 7-9 11l-16 36c22 15 36 67 36 97l0 59c0 48-39 88-87 88-49 0-88-40-88-88l0-59c0-30 14-82 36-97l-16-36c-1-4-6-9-9-11l-136-79c-3-2-7-7-8-12l-14-88 469 0-14 89c-1 4-5 9-8 11z m44 167l-128 0c-12 0-22-10-22-21 0-12 10-22 22-22l128 0c11 0 21 10 21 22 0 11-10 21-21 21z"/>
<glyph glyph-name="remove-contain" unicode="&#57484;" d="M256 0c141 0 256 115 256 256 0 141-115 256-256 256-141 0-256-115-256-256 0-141 115-256 256-256z m-107 277l214 0c12 0 21-9 21-21 0-12-9-21-21-21l-214 0c-11 0-21 9-21 21 0 12 10 21 21 21z"/>
<glyph glyph-name="remove-outline" unicode="&#57485;" d="M256 0c141 0 256 115 256 256 0 141-115 256-256 256-141 0-256-115-256-256 0-141 115-256 256-256z m0 469c118 0 213-95 213-213 0-118-95-213-213-213-118 0-213 95-213 213 0 118 95 213 213 213z m107-192l-214 0c-11 0-21-9-21-21 0-12 10-21 21-21l214 0c12 0 21 9 21 21 0 12-9 21-21 21z"/>
<glyph glyph-name="reply-all" unicode="&#57486;" d="M245 375l0 25c0 15-9 20-22 12l-223-156 223-156c13-8 22-3 22 12l0 26-170 119z m246-98l-96 0 0 123c0 2 0 4-1 6 0 1 0 1 0 1 0 2-1 3-1 4 0 0 0 1-2 1-1 1-2 2-3 3-1 0-1 0-2 0-1 0-1 0-2 0 0 0-1 0-1 0-1 0-2 0-3-1 0 0-1 0-1 0-2-1-4-1-6-3l-224-155 223-156c2-1 3-2 6-3 0 0 1 0 1 0 1 0 2-1 3-1 0 0 1 0 1 0 1 0 3 0 4 1 1 1 2 1 3 3 0 0 0 1 1 1 2 1 2 2 2 4 0 0 0 1 0 1 0 1 0 2 0 3 0 1 0 2 0 3l0 123 96 0c11 0 21 9 21 21 0 12-8 21-19 21z"/>
<glyph glyph-name="report" unicode="&#57487;" d="M405 512l-298 0c-12 0-22-10-22-21l0-470c0-11 10-21 22-21l298 0c12 0 22 10 22 21l0 470c0 11-10 21-22 21z m-170-373l-64 0c-12 0-22 9-22 21 0 12 10 21 22 21l64 0c11 0 21-9 21-21 0-12-10-21-21-21z m106 96l-170 0c-12 0-22 9-22 21 0 12 10 21 22 21l170 0c12 0 22-9 22-21 0-12-10-21-22-21z m0 96l-170 0c-12 0-22 9-22 21 0 12 10 21 22 21l170 0c12 0 22-9 22-21 0-12-10-21-22-21z"/>
<glyph glyph-name="reset" unicode="&#57488;" d="M256 449l0 54c0 8-5 11-12 6l-116-82 116-81c7-5 12-2 12 6l0 54c100 0 181-81 181-181 0-100-81-182-181-182-100 0-181 82-181 182 0 56 26 107 67 140l-36 26c-45-41-74-100-74-166 0-124 100-224 224-224 124 0 224 100 224 224 0 123-100 224-224 224z m32-226c0-17-14-32-32-32-18 0-32 15-32 32 0 18 14 32 32 32 18 0 32-14 32-32z"/>
<glyph glyph-name="right-arrow" unicode="&#57489;" d="M145 21c-6 0-11 2-15 7-8 8-8 21 0 30l198 198-198 198c-8 9-8 22 0 30 8 9 22 9 30 0l228-228-228-228c-4-5-10-7-15-7z"/>
<glyph glyph-name="right-arrow-closed-contained" unicode="&#57490;" d="M256 512c-141 0-256-115-256-256 0-141 115-256 256-256 141 0 256 115 256 256 0 141-115 256-256 256z m-32-328c-6-4-11-2-11 5l0 134c0 7 5 10 11 6l107-73z"/>
<glyph glyph-name="right-arrow-closed-outline" unicode="&#57491;" d="M256 512c-141 0-256-115-256-256 0-141 115-256 256-256 141 0 256 115 256 256 0 141-115 256-256 256z m0-469c-118 0-213 95-213 213 0 118 95 213 213 213 118 0 213-95 213-213 0-118-95-213-213-213z m-37 288c-3 0-6-3-6-8l0-134c0-4 3-7 6-7 1 0 3 0 5 2l107 72-107 73c-2 1-4 2-5 2z"/>
<glyph glyph-name="right-arrow-contain" unicode="&#57492;" d="M256 512c-141 0-256-115-256-256 0-141 115-256 256-256 141 0 256 115 256 256 0 141-115 256-256 256z m-28-378c-4-4-9-6-15-6-5 0-11 2-15 6-8 9-8 22 0 30l92 92-92 92c-8 8-8 21 0 30 9 8 22 8 30 0l122-122z"/>
<glyph glyph-name="right-arrow-contained" unicode="&#57493;" d="M117 38l310 218-310 218c-18 12-32 5-32-16l0-404c0-21 14-28 32-16z"/>
<glyph glyph-name="right-arrow-outline" unicode="&#57494;" d="M213 384c-5 0-11-2-15-6-8-9-8-22 0-30l92-92-92-92c-8-8-8-21 0-30 4-4 10-6 15-6 6 0 11 2 15 6l122 122-122 122c-4 4-9 6-15 6z m43 128c-141 0-256-115-256-256 0-141 115-256 256-256 141 0 256 115 256 256 0 141-115 256-256 256z m0-469c-118 0-213 95-213 213 0 118 95 213 213 213 118 0 213-95 213-213 0-118-95-213-213-213z"/>
<glyph glyph-name="ringer-settings" unicode="&#57495;" d="M321 162l-37 50c-3 3-6 9-7 13 0 0-15 57-15 57-8 52-38 91-92 91-54 0-84-40-92-92 0 0-15-56-15-56-1-4-4-10-6-13l-37-50c-3-3-6-10-7-14l-13-55 342 0-13 56c-2 3-5 10-8 13z m-119-131c0-17-14-31-31-31-17 0-31 14-31 31 0 17 14 31 31 31 17 0 31-14 31-31z m97 417l6 0c7-13 21-21 36-21 16 0 30 8 37 21l113 0c11 0 21 10 21 21 0 12-10 22-21 22l-113 0c-7 12-21 21-37 21-15 0-29-9-36-21l-6 0c-12 0-22-10-22-22 0-11 10-21 22-21z m192-107l-6 0c-8 13-21 22-37 22-16 0-29-9-37-22l-112 0c-12 0-22-9-22-21 0-12 10-21 22-21l112 0c8-13 21-22 37-22 16 0 29 9 37 22l6 0c11 0 21 9 21 21 0 12-10 21-21 21z"/>
<glyph glyph-name="rotate-object-ccw" unicode="&#57496;" d="M442 281c-12 96-94 168-191 168l0 54c0 8-6 11-12 7l-116-82 116-83c6-5 12-3 12 6l0 55c74 0 138-56 148-130 1-10 11-19 21-19 1 0 2 0 2 0 13 1 22 12 20 24z m-135-24l-220 0c-9 0-18-8-18-18l0-220c0-9 9-18 18-18l220 0c10 0 18 9 18 18l0 220c1 10-7 18-18 18z"/>
<glyph glyph-name="rotate-object-cw" unicode="&#57497;" d="M70 281c12 96 94 168 191 168l0 54c0 8 6 11 12 7l116-82-116-83c-6-5-12-3-12 6l0 55c-74 0-138-56-148-130-1-10-11-19-21-19-1 0-2 0-2 0-13 1-22 12-20 24z m135-24l220 0c9 0 18-8 18-18l0-220c0-9-9-18-18-18l-220 0c-10 0-18 9-18 18l0 220c-1 10 7 18 18 18z"/>
<glyph glyph-name="rtprx" unicode="&#57498;" d="M85 448l0-384c0-35 29-64 64-64l0 512c-35 0-64-29-64-64z m320 11l-96 0 0 44c0 8-5 10-10 6l-107-73 107-72c6-5 10-2 10 5l0 47 96 0c12 0 22 10 22 21 0 12-10 22-22 22z"/>
<glyph glyph-name="rtprx-rtptx-duplex" unicode="&#57499;" d="M85 448l0-384c0-35 29-64 64-64l0 512c-35 0-64-29-64-64z m224-78l0 46 96 0c12 0 22 10 22 21 0 12-10 22-22 22l-96 0 0 44c0 8-5 10-10 6l-107-73 107-72c5-3 10-1 10 6z m0-228l0-46-96 0c-11 0-21-10-21-21 0-12 10-22 21-22l96 0 0-44c0-8 6-10 11-6l107 73-107 72c-5 3-11 1-11-6z"/>
<glyph glyph-name="rtptx" unicode="&#57500;" d="M85 448l0-384c0-35 29-64 64-64l0 512c-35 0-64-29-64-64z m128-395l96 0 0-44c0-8 6-10 11-6l107 73-107 72c-6 5-11 2-11-5l0-46-96 0c-11 0-21-10-21-21 0-12 10-23 21-23z"/>
<glyph glyph-name="running-application" unicode="&#57501;" d="M256 512c-141 0-256-115-256-256 0-141 115-256 256-256 141 0 256 115 256 256 0 141-115 256-256 256z m0-395c-76 0-139 63-139 139 0 65 46 120 107 135l0 49c0 8 5 10 11 6l111-78-111-78c-6-4-11-1-11 6l0 50c-37-13-64-48-64-90 0-53 43-96 96-96 53 0 96 43 96 96 0 20-6 38-16 53l34 24 1 1c15-23 24-49 24-78 0-76-63-139-139-139z"/>
<glyph glyph-name="save" unicode="&#57502;" d="M373 480l-42 0 0-149-203 0 0 149-75 0c-11 0-21-10-21-21l0-406c0-11 10-21 21-21l406 0c11 0 21 10 21 21l0 320z m-128 0l43 0 0-107-43 0z"/>
<glyph glyph-name="schedule-add" unicode="&#57503;" d="M469 491l-64 0 0-22c0-11-9-21-21-21-12 0-21 10-21 21l0 22-214 0 0-22c0-11-9-21-21-21-12 0-21 10-21 21l0 22-64 0c-12 0-22-10-22-22l0-426c0-12 10-22 22-22l426 0c12 0 22 10 22 22l0 426c0 12-10 22-22 22z m-117-278l-75 0 0-74c0-12-9-22-21-22-12 0-21 10-21 22l0 74-75 0c-12 0-21 10-21 22 0 11 9 21 21 21l75 0 0 75c0 11 9 21 21 21 12 0 21-10 21-21l0-75 75 0c12 0 21-10 21-21 0-12-9-22-21-22z"/>
<glyph glyph-name="screen-capture" unicode="&#57504;" d="M491 181l-43 0 0 43c0 12-10 21-21 21-12 0-22-9-22-21l0-43-42 0c-12 0-22-9-22-21 0-12 10-21 22-21l42 0 0-43c0-12 10-21 22-21 11 0 21 9 21 21l0 43 43 0c11 0 21 9 21 21 0 12-10 21-21 21z m-448 214l362 0 0-107 43 0 0 128c0 12-10 21-21 21l-406 0c-11 0-21-9-21-21l0-256c0-12 10-21 21-21l278 0 0 42-256 0z"/>
<glyph glyph-name="screen-capture-square" unicode="&#57505;" d="M64 448l320 0 0-213 43 0 0 234c0 12-10 22-22 22l-362 0c-12 0-22-10-22-22l0-362c0-12 10-22 22-22l234 0 0 43-213 0z m405-320l-42 0 0 43c0 11-10 21-22 21-11 0-21-10-21-21l0-43-43 0c-11 0-21-10-21-21 0-12 10-22 21-22l43 0 0-42c0-12 10-22 21-22 12 0 22 10 22 22l0 42 42 0c12 0 22 10 22 22 0 11-10 21-22 21z"/>
<glyph glyph-name="sd" unicode="&#57506;" d="M330 230l-32 0 0-135 33 0c38 0 60 23 60 67-1 46-23 68-61 68z m43 282l-320 0c-11 0-21-10-21-21l0-470c0-11 10-21 21-21l406 0c11 0 21 10 21 21l0 384z m-198-442c-37 0-66 21-72 54l26 0c3-21 19-32 45-32 29 0 44 14 44 31 0 16-9 23-56 37-40 12-53 26-53 50 0 26 22 45 63 45 37 0 65-18 69-48l-26 0c-3 17-17 27-43 27-27 0-39-11-39-24 0-14 6-20 46-31 49-14 63-28 63-55 1-28-23-54-67-54z m152 5l-55 0 0 176 57 0c51 0 86-28 86-88 1-57-35-88-88-88z"/>
<glyph glyph-name="search" unicode="&#57507;" d="M484 58l-157 158c22 28 36 65 36 104 0 94-77 171-171 171-94 0-171-77-171-171 0-94 77-171 171-171 39 0 76 14 105 36l157-157c4-5 10-7 15-7 6 0 11 2 15 7 9 8 9 21 0 30z m-420 262c0 71 57 128 128 128 71 0 128-57 128-128 0-71-57-128-128-128-71 0-128 57-128 128z"/>
<glyph glyph-name="self-view" unicode="&#57508;" d="M352 296l0 109c0 12-10 22-21 22l-299 0c-12 0-21-10-21-22l0-298c0-12 9-22 21-22l299 0c11 0 21 10 21 22l0 109c52-31 149-88 149-88l0 256c0 0-97-57-149-88z m-299-168l8 48c1 2 3 5 5 6l73 43c2 1 5 4 6 6l8 20c-12 9-20 36-20 53l0 32c0 27 22 48 48 48 27 0 49-21 49-48l0-32c0-16-9-44-21-53l9-20c1-2 3-5 5-6l74-43c2-1 4-4 4-6l8-48z"/>
<glyph glyph-name="self-view-alt" unicode="&#57509;" d="M491 427l-470 0c-11 0-21-10-21-22l0-298c0-12 10-22 21-22l470 0c11 0 21 10 21 22l0 298c0 12-10 22-21 22z m-363-299l8 48c0 2 2 5 4 6l74 43c2 1 4 4 5 6l9 20c-12 9-20 36-20 53l0 32c0 27 22 48 48 48 26 0 49-21 49-48l0-32c0-16-9-44-21-53l9-20c1-2 3-5 5-6l74-43c2-1 4-4 4-6l8-48z"/>
<glyph glyph-name="self-view-crossed" unicode="&#57510;" d="M377 374l81 81c8 7 8 20 0 27-7 8-20 8-27 0l-72-72c-1 0-1 1-2 1l-270 0c-11 0-19-9-19-20l0-270c0-1 0-1 0-2l-62-62c-8-7-8-20 0-27 3-4 8-6 13-6 5 0 10 2 14 6l72 71 38 39 107 107z m-267-213l3 23c1 2 3 4 4 5l49 29z m68 138l0 30c0 24 20 43 44 43 24 0 44-19 44-43l0-11-72-72 3 5c-11 8-19 34-19 48z m88 19l-67-68-2 1-3-5z m111 1l-100-100 50-30c2-1 4-3 4-5l7-44-140 0-39-39 198 0c11 0 20 9 20 20l0 99c47-28 135-80 135-80l0 232c0 0-88-52-135-80l0 27z"/>
<glyph glyph-name="send" unicode="&#57511;" d="M58 468c-9 5-18-3-16-12l48-178 101-21-101-22-48-179c-2-9 7-17 16-12l412 213z"/>
<glyph glyph-name="send-email" unicode="&#57512;" d="M289 412c-13 8-22 3-22-12l0-123-107 0c-89 0-160-71-160-160 0-11 10-21 21-21 12 0 22 10 22 21 0 65 52 118 117 118l107 0 0-123c0-15 9-20 22-12l223 156z"/>
<glyph glyph-name="sent" unicode="&#57513;" d="M235 279l111 111c8 9 8 22 0 30-9 9-22 9-30 0l-81-81-38 38c-8 8-21 8-30 0-8-9-8-22 0-30z m234 148l0-214-426 0 0 214c-24 0-43-20-43-43l0-277c0-12 10-22 21-22l470 0c11 0 21 10 21 22l0 277c0 23-19 43-43 43z"/>
<glyph glyph-name="setup-assistant" unicode="&#57514;" d="M256 512c-141 0-256-115-256-256 0-141 115-256 256-256 141 0 256 115 256 256 0 141-115 256-256 256z m126-235l-43 0c-8 30-32 54-62 62l0 43c54-9 96-51 105-105z m-147 105l0-43c-30-8-54-32-62-62l-43 0c9 54 51 96 105 105z m-105-147l43 0c8-30 32-54 62-62l0-43c-54 9-96 51-105 105z m147-105l0 43c30 8 54 32 62 62l43 0c-9-54-51-96-105-105z"/>
<glyph glyph-name="share" unicode="&#57515;" d="M469 64l-426 0c-12 0-22-10-22-21 0-12 10-22 22-22l426 0c12 0 22 10 22 22 0 11-10 21-22 21z m-299 277l65 0 0-138c0-12 9-22 21-22 12 0 21 10 21 22l0 138 65 0c10 0 13 6 7 14l-93 136-93-136c-6-8-3-14 7-14z"/>
<glyph glyph-name="share-contain" unicode="&#57516;" d="M469 491l-426 0c-12 0-22-10-22-22l0-426c0-12 10-22 22-22l426 0c12 0 22 10 22 22l0 426c0 12-10 22-22 22z m-286-182l73 107 73-107c4-6 1-10-6-10l-46 0 0-86c0-11-9-21-21-21-12 0-21 10-21 21l0 86-46 0c-7 0-10 4-6 10z m212-213l-278 0c-11 0-21 10-21 21 0 12 10 22 21 22l278 0c11 0 21-10 21-22 0-11-10-21-21-21z"/>
</font>
</defs>
</svg>
